<svg xmlns="http://www.w3.org/2000/svg" width="2100.739" height="1042.395" viewBox="0 0 2100.739 1042.395">
  <g id="Clouds" transform="translate(201.675 -125.143)" opacity="0.19" style="mix-blend-mode: multiply;isolation: isolate">
    <path id="Caminho_40" data-name="Caminho 40" d="M3,54.792a19.99,19.99,0,0,0,19.99,19.99H67.967a24.987,24.987,0,1,0-.5-49.971,25,25,0,1,0-48.88,10.477A20,20,0,0,0,3,54.792Z" transform="translate(853 649.646)" fill="none" stroke="#c4d8ff" stroke-linecap="round" stroke-linejoin="round" stroke-width="5"/>
    <path id="Caminho_41" data-name="Caminho 41" d="M3,90.836A34.474,34.474,0,0,0,37.474,125.31h77.567a43.092,43.092,0,1,0-.862-86.179A43.106,43.106,0,1,0,29.882,57.2,34.483,34.483,0,0,0,3,90.836Z" transform="translate(575.501 719.381)" fill="none" stroke="#c4d8ff" stroke-linecap="round" stroke-linejoin="round" stroke-width="5"/>
    <path id="Caminho_42" data-name="Caminho 42" d="M3,59.974A22.072,22.072,0,0,0,25.072,82.046H74.735a27.59,27.59,0,1,0-.552-55.177A27.6,27.6,0,1,0,20.211,38.438,22.078,22.078,0,0,0,3,59.974Z" transform="translate(942.501 819.646)" fill="none" stroke="#c4d8ff" stroke-linecap="round" stroke-linejoin="round" stroke-width="5"/>
    <path id="Caminho_43" data-name="Caminho 43" d="M3,286.786A113.215,113.215,0,0,0,116.215,400H370.949a141.515,141.515,0,1,0-2.83-283.017A141.562,141.562,0,1,0,91.282,176.322,113.244,113.244,0,0,0,3,286.786Z" transform="translate(-60.174 765.036)" fill="none" stroke="#c4d8ff" stroke-linecap="round" stroke-linejoin="round" stroke-width="5"/>
    <path id="Caminho_44" data-name="Caminho 44" d="M3,140.669a54.5,54.5,0,0,0,54.5,54.5H180.121A68.122,68.122,0,1,0,178.759,58.93,68.144,68.144,0,1,0,45.5,87.494,54.513,54.513,0,0,0,3,140.669Z" transform="translate(1282 697.26)" fill="none" stroke="#c4d8ff" stroke-linecap="round" stroke-linejoin="round" stroke-width="5"/>
    <path id="Caminho_45" data-name="Caminho 45" d="M92.7,54.792a19.99,19.99,0,0,1-19.99,19.99H27.738a24.987,24.987,0,1,1,.5-49.971,25,25,0,1,1,48.88,10.477A20,20,0,0,1,92.7,54.792Z" transform="translate(523.685 122.646)" fill="none" stroke="#c4d8ff" stroke-linecap="round" stroke-linejoin="round" stroke-width="5"/>
    <path id="Caminho_46" data-name="Caminho 46" d="M157.7,90.836a34.474,34.474,0,0,1-34.474,34.474H45.662a43.092,43.092,0,1,1,.862-86.179,43.106,43.106,0,1,1,84.3,18.068A34.483,34.483,0,0,1,157.7,90.836Z" transform="translate(736.186 192.381)" fill="none" stroke="#c4d8ff" stroke-linecap="round" stroke-linejoin="round" stroke-width="5"/>
    <path id="Caminho_47" data-name="Caminho 47" d="M102.049,59.974A22.072,22.072,0,0,1,79.977,82.046H30.314a27.59,27.59,0,1,1,.552-55.177A27.6,27.6,0,1,1,84.838,38.438a22.078,22.078,0,0,1,17.211,21.536Z" transform="translate(424.839 292.646)" fill="none" stroke="#c4d8ff" stroke-linecap="round" stroke-linejoin="round" stroke-width="5"/>
    <path id="Caminho_48" data-name="Caminho 48" d="M511.054,286.786A113.215,113.215,0,0,1,397.838,400H143.1a141.515,141.515,0,1,1,2.83-283.017,141.562,141.562,0,1,1,276.837,59.337,113.244,113.244,0,0,1,88.282,110.464Z" transform="translate(1018.51 238.036)" fill="none" stroke="#c4d8ff" stroke-linecap="round" stroke-linejoin="round" stroke-width="5"/>
    <path id="Caminho_49" data-name="Caminho 49" d="M247.564,140.669a54.5,54.5,0,0,1-54.5,54.5H70.442A68.122,68.122,0,1,1,71.805,58.93,68.144,68.144,0,1,1,205.067,87.494a54.513,54.513,0,0,1,42.5,53.175Z" transform="translate(-202.174 179.26)" fill="none" stroke="#c4d8ff" stroke-linecap="round" stroke-linejoin="round" stroke-width="5"/>
    <path id="Caminho_50" data-name="Caminho 50" d="M3,90.836A34.474,34.474,0,0,0,37.474,125.31h77.567a43.092,43.092,0,1,0-.862-86.179A43.106,43.106,0,1,0,29.882,57.2,34.483,34.483,0,0,0,3,90.836Z" transform="translate(1714.501 977.381)" fill="none" stroke="#c4d8ff" stroke-linecap="round" stroke-linejoin="round" stroke-width="5"/>
    <path id="Caminho_51" data-name="Caminho 51" d="M157.7,90.836a34.474,34.474,0,0,1-34.474,34.474H45.662a43.092,43.092,0,1,1,.862-86.179,43.106,43.106,0,1,1,84.3,18.068A34.483,34.483,0,0,1,157.7,90.836Z" transform="translate(1536.501 876.381)" fill="none" stroke="#c4d8ff" stroke-linecap="round" stroke-linejoin="round" stroke-width="5"/>
    <path id="Caminho_52" data-name="Caminho 52" d="M3,93.846A35.684,35.684,0,0,0,38.684,129.53h80.288a44.6,44.6,0,1,0-.892-89.2,44.618,44.618,0,1,0-87.255,18.7A35.693,35.693,0,0,0,3,93.846Z" transform="translate(114.127 141.897)" fill="none" stroke="#c4d8ff" stroke-linecap="round" stroke-linejoin="round" stroke-width="5"/>
    <path id="Caminho_53" data-name="Caminho 53" d="M3,140.669a54.5,54.5,0,0,0,54.5,54.5H180.121A68.122,68.122,0,1,0,178.759,58.93,68.144,68.144,0,1,0,45.5,87.494,54.513,54.513,0,0,0,3,140.669Z" transform="translate(1614 208.26)" fill="none" stroke="#c4d8ff" stroke-linecap="round" stroke-linejoin="round" stroke-width="5"/>
    <path id="Caminho_54" data-name="Caminho 54" d="M3,140.669a54.5,54.5,0,0,0,54.5,54.5H180.121A68.122,68.122,0,1,0,178.759,58.93,68.144,68.144,0,1,0,45.5,87.494,54.513,54.513,0,0,0,3,140.669Z" transform="translate(1649 668.26)" fill="none" stroke="#c4d8ff" stroke-linecap="round" stroke-linejoin="round" stroke-width="5"/>
  </g>
</svg>
