<svg xmlns="http://www.w3.org/2000/svg" xmlns:xlink="http://www.w3.org/1999/xlink" width="653.972" height="328.684" viewBox="0 0 653.972 328.684">
  <defs>
    <linearGradient id="linear-gradient" x1="-1.578" y1="-0.651" x2="6.792" y2="3.647" gradientUnits="objectBoundingBox">
      <stop offset="0" stop-color="#fff"/>
      <stop offset="1" stop-color="#e5e5e5"/>
    </linearGradient>
  </defs>
  <g id="cloud-art" transform="translate(-1094.686 -291.621)">
    <path id="Caminho_65" data-name="Caminho 65" d="M-1570.7,229.685a50.769,50.769,0,0,1-9.509-.9,120.23,120.23,0,0,0,20.557-28.508,120.281,120.281,0,0,0,13.211-63.617,120.453,120.453,0,0,0-5.457-28.47,44.99,44.99,0,0,1,14.482-9.678,44.616,44.616,0,0,1,17.271-3.468,45.163,45.163,0,0,1,11.15,1.406,44.716,44.716,0,0,1,16.1,7.755,44.845,44.845,0,0,1,11.477,12.879,44.847,44.847,0,0,1,5.81,16.243,44.719,44.719,0,0,1-.9,17.846,39.374,39.374,0,0,1,35.112,41.223,39.372,39.372,0,0,1-39.262,37.29H-1570.7Z" transform="translate(3190 342.621)" fill="#fff"/>
    <path id="Caminho_64" data-name="Caminho 64" d="M-1914.385,276.684a50.61,50.61,0,0,1-26.3-7.368,50.6,50.6,0,0,1-18.642-19.957,50.605,50.605,0,0,1-5.558-26.765,50.6,50.6,0,0,1,9.17-25.751,50.654,50.654,0,0,1,8.2-9.049,50.656,50.656,0,0,1,9.939-6.72,50.73,50.73,0,0,1,11.2-4.184,50.608,50.608,0,0,1,11.98-1.44,50.86,50.86,0,0,1,6.989.485,44.9,44.9,0,0,1,6.173-13.881,44.822,44.822,0,0,1,10.028-10.7,45.14,45.14,0,0,1,12.82-6.88,44.689,44.689,0,0,1,14.55-2.433,45.171,45.171,0,0,1,11.152,1.406,45.483,45.483,0,0,1,6.868,2.349,94.174,94.174,0,0,0-3.241,30.055,94.864,94.864,0,0,0,58.118,82.211,39.608,39.608,0,0,1-14.042,13.5,39.2,39.2,0,0,1-9.2,3.775,39.461,39.461,0,0,1-10.174,1.342h-90.039Z" transform="translate(3059.686 343.621)" fill="#fff"/>
    <g id="Grupo_15" data-name="Grupo 15">
      <path id="Caminho_37" data-name="Caminho 37" d="M92.743,314.758a90.856,90.856,0,0,1-9.579-181.193A103.85,103.85,0,0,1,284.424,82.244a116.815,116.815,0,1,1,15.991,232.514Z" transform="translate(1216.995 287.591)" fill="#fff"/>
      <g id="Grupo_14" data-name="Grupo 14" transform="translate(374.947 1365.519)">
        <g id="g20" transform="translate(972.419 -947.121)">
          <path id="path22" d="M-53.464,0H-69.648A9.248,9.248,0,0,0-78.9,9.248V25.431a9.247,9.247,0,0,0,9.248,9.248h16.184a9.247,9.247,0,0,0,9.248-9.248V9.248A9.248,9.248,0,0,0-53.464,0" transform="translate(78.896)" fill="url(#linear-gradient)"/>
        </g>
        <g id="g24" transform="translate(958.547 -954.056)">
          <path id="path26" d="M-259.217-96.375l-2.683-2.683a9.248,9.248,0,0,1-2.709-6.539v-27.373a9.248,9.248,0,0,0-9.248-9.248h-36.991a9.247,9.247,0,0,0-9.248,9.248V-105.6a9.248,9.248,0,0,1-2.709,6.539l-6.15,6.151a9.249,9.249,0,0,1-6.54,2.709H-373.27a9.248,9.248,0,0,0-9.248,9.248v26.587a9.248,9.248,0,0,0,9.248,9.248h36.992a9.248,9.248,0,0,0,9.248-9.248V-81.735a9.248,9.248,0,0,1,2.708-6.54l6.151-6.15a9.246,9.246,0,0,1,6.539-2.709h38.562a9.247,9.247,0,0,1,6.539,2.709l2.683,2.682A9.249,9.249,0,0,1-261.14-85.2v10.033a9.248,9.248,0,0,0,9.248,9.248h9.248a9.248,9.248,0,0,0,9.248-9.248v-9.248a9.248,9.248,0,0,0-9.248-9.248h-10.033a9.248,9.248,0,0,1-6.539-2.709" transform="translate(382.518 142.217)" fill="url(#linear-gradient)"/>
        </g>
        <g id="g28" transform="translate(1135.411 -863.89)">
          <path id="path30" d="M-19.442-72.906H-3.258A9.248,9.248,0,0,0,5.99-82.154V-98.337a9.247,9.247,0,0,0-9.248-9.248H-19.442a9.247,9.247,0,0,0-9.248,9.248v16.184a9.248,9.248,0,0,0,9.248,9.248" transform="translate(28.689 107.585)" fill="url(#linear-gradient)"/>
        </g>
        <g id="g32" transform="translate(1034.841 -919.377)">
          <path id="path34" d="M-54.282-107.764l2.683,2.683a9.248,9.248,0,0,1,2.709,6.539v27.373a9.248,9.248,0,0,0,9.248,9.248H-2.652A9.247,9.247,0,0,0,6.6-71.169V-98.542A9.248,9.248,0,0,1,9.3-105.081l6.15-6.151a9.25,9.25,0,0,1,6.54-2.709H59.771a9.248,9.248,0,0,0,9.248-9.248v-26.587a9.248,9.248,0,0,0-9.248-9.248H22.779a9.248,9.248,0,0,0-9.248,9.248V-122.4a9.249,9.249,0,0,1-2.709,6.54l-6.151,6.15A9.246,9.246,0,0,1-1.867-107H-40.428a9.247,9.247,0,0,1-6.539-2.709L-49.65-112.4a9.249,9.249,0,0,1-2.709-6.539v-10.033a9.248,9.248,0,0,0-9.248-9.248h-9.248a9.248,9.248,0,0,0-9.248,9.248v9.248a9.248,9.248,0,0,0,9.248,9.248h10.033a9.248,9.248,0,0,1,6.539,2.709" transform="translate(80.102 159.024)" fill="url(#linear-gradient)"/>
        </g>
      </g>
    </g>
  </g>
</svg>
