<svg xmlns="http://www.w3.org/2000/svg" xmlns:xlink="http://www.w3.org/1999/xlink" width="565.316" height="427.656" viewBox="0 0 565.316 427.656"><defs><filter id="a" x="0" y="0" width="565.316" height="427.656" filterUnits="userSpaceOnUse"><feOffset dy="3" input="SourceAlpha"/><feGaussianBlur stdDeviation="38.5" result="b"/><feFlood flood-opacity="0.412"/><feComposite operator="in" in2="b"/><feComposite in="SourceGraphic"/></filter></defs><g transform="matrix(1, 0, 0, 1, 0, 0)" filter="url(#a)"><path d="M-104.144-244.817a12.905,12.905,0,0,1-12.905-12.905v-42.4a12.88,12.88,0,0,1,.806-4.5l-15.2-15.2a12.9,12.9,0,0,1-4.046.647h-15.978a12.906,12.906,0,0,1-12.906-12.905v-14.134a12.906,12.906,0,0,1,12.906-12.906h15.978a12.906,12.906,0,0,1,12.906,12.906v14.134a12.922,12.922,0,0,1-.428,3.309l16.05,16.05a12.951,12.951,0,0,1,2.814-.308H-47.6a12.951,12.951,0,0,1,2.752.294l19.17-19.17a12.926,12.926,0,0,1-.412-3.248v-42.4A12.905,12.905,0,0,1-13.19-390.465H43.963A12.906,12.906,0,0,1,56.869-377.56v42.4A12.906,12.906,0,0,1,43.963-322.25H-13.19a12.893,12.893,0,0,1-4.1-.666l-18.234,18.234a12.877,12.877,0,0,1,.827,4.556v42.4A12.905,12.905,0,0,1-47.6-244.817Zm101.4-12.905a12.906,12.906,0,0,1-12.906-12.906v-26.426A12.906,12.906,0,0,1-2.742-309.959h25.2a12.905,12.905,0,0,1,12.905,12.905v26.426a12.906,12.906,0,0,1-12.905,12.906Zm-261.8-39.332a12.905,12.905,0,0,1-12.905-12.905v-42.4a12.905,12.905,0,0,1,12.905-12.905h57.154a12.911,12.911,0,0,1,3.528.488l19.469-18.8a12.961,12.961,0,0,1-.258-2.582v-42.4a12.906,12.906,0,0,1,12.905-12.906h57.768a12.906,12.906,0,0,1,12.905,12.906v42.4a12.874,12.874,0,0,1-.883,4.7l12.609,12.609a12.887,12.887,0,0,1,4.253-.717h15.979a12.905,12.905,0,0,1,12.905,12.905v14.749A12.906,12.906,0,0,1-69.114-329.01H-85.092A12.906,12.906,0,0,1-98-341.916v-14.749a12.932,12.932,0,0,1,.372-3.088l-13.763-13.764a12.966,12.966,0,0,1-2.586.259h-57.768a12.871,12.871,0,0,1-4.722-.891l-18.594,17.957a12.9,12.9,0,0,1,.578,3.829v42.4a12.905,12.905,0,0,1-12.905,12.905Zm21.509-83.578a12.906,12.906,0,0,1-12.905-12.906v-26.425a12.906,12.906,0,0,1,12.905-12.906h25.2a12.906,12.906,0,0,1,12.905,12.906v26.425a12.906,12.906,0,0,1-12.905,12.906Z" transform="translate(392.95 553.97)" fill="#fff"/></g></svg>