<svg xmlns="http://www.w3.org/2000/svg" xmlns:xlink="http://www.w3.org/1999/xlink" width="1920" height="1080" viewBox="0 0 1920 1080">
  <defs>
    <clipPath id="clip-path">
      <path id="Caminho_36" data-name="Caminho 36" d="M0,0H1920V1080H0Z" fill="#4682f8"/>
    </clipPath>
  </defs>
  <g id="logo-bg" clip-path="url(#clip-path)">
    <g id="logo" transform="translate(-866 656.525)">
      <g id="g20" transform="translate(1098.897 -883.884)">
        <path id="path22" d="M178.406,0H14.668A93.564,93.564,0,0,0-78.9,93.564V257.3a93.561,93.561,0,0,0,93.564,93.564H178.406A93.561,93.561,0,0,0,271.97,257.3V93.564A93.564,93.564,0,0,0,178.406,0" transform="translate(78.896)" fill="#4580f2"/>
      </g>
      <g id="g24" transform="translate(958.547 -954.056)">
        <path id="path26" d="M864.983,321.594,837.84,294.451a93.565,93.565,0,0,1-27.4-66.16V-48.653a93.564,93.564,0,0,0-93.564-93.564H342.613a93.561,93.561,0,0,0-93.564,93.564V228.29a93.569,93.569,0,0,1-27.408,66.16l-62.225,62.23a93.582,93.582,0,0,1-66.165,27.4h-382.2a93.567,93.567,0,0,0-93.564,93.564v269a93.568,93.568,0,0,0,93.564,93.568H85.311a93.568,93.568,0,0,0,93.564-93.568V469.708a93.567,93.567,0,0,1,27.4-66.165l62.23-62.225a93.551,93.551,0,0,1,66.16-27.408H724.817a93.558,93.558,0,0,1,66.161,27.408l27.143,27.138a93.58,93.58,0,0,1,27.4,66.16V536.125a93.568,93.568,0,0,0,93.564,93.568h93.568a93.568,93.568,0,0,0,93.564-93.568V442.561A93.567,93.567,0,0,0,1032.656,349H931.143a93.565,93.565,0,0,1-66.16-27.4" transform="translate(382.518 142.217)" fill="#4580f2"/>
      </g>
      <g id="g28" transform="translate(2747.979 -41.797)">
        <path id="path30" d="M64.875,243.281H228.613a93.564,93.564,0,0,0,93.564-93.564V-14.021a93.561,93.561,0,0,0-93.564-93.564H64.875A93.561,93.561,0,0,0-28.689-14.021V149.717a93.564,93.564,0,0,0,93.564,93.564" transform="translate(28.689 107.585)" fill="#4580f2"/>
      </g>
      <g id="g32" transform="translate(1730.457 -603.191)">
        <path id="path34" d="M181.135,359.6l27.143,27.143a93.565,93.565,0,0,1,27.4,66.16V729.845a93.564,93.564,0,0,0,93.564,93.564H703.5a93.561,93.561,0,0,0,93.564-93.564V452.9a93.569,93.569,0,0,1,27.408-66.16l62.225-62.23a93.582,93.582,0,0,1,66.165-27.4h382.2a93.567,93.567,0,0,0,93.564-93.564v-269a93.568,93.568,0,0,0-93.564-93.568H960.807a93.568,93.568,0,0,0-93.564,93.568V211.484a93.575,93.575,0,0,1-27.4,66.165l-62.23,62.225a93.551,93.551,0,0,1-66.16,27.408H321.3a93.558,93.558,0,0,1-66.16-27.408L228,312.736a93.58,93.58,0,0,1-27.4-66.16V145.067A93.568,93.568,0,0,0,107.03,51.5H13.461A93.568,93.568,0,0,0-80.1,145.067v93.564a93.567,93.567,0,0,0,93.564,93.564H114.974a93.565,93.565,0,0,1,66.161,27.4" transform="translate(80.102 159.024)" fill="#4580f2"/>
      </g>
    </g>
  </g>
</svg>
