<svg xmlns="http://www.w3.org/2000/svg" width="800.846" height="50" viewBox="0 0 800.846 50">
  <g id="provedores" transform="translate(-50 -946)">
    <g id="hostgator" transform="translate(643 954.589)">
      <g id="Grupo_8" data-name="Grupo 8" transform="translate(0 -0.004)">
        <path id="Caminho_23" data-name="Caminho 23" d="M37.179,19.882c.317,1.9,2.026,2.607,3.91,2.607s3.311-.793,3.347-1.761c0-1.48-1.074-2.36-2.695-2.677l-4.474-.881c-4.069-.74-6.394-1.938-6.394-5.46,0-4.562,3.893-7.539,9.459-7.539s9.124,2.536,10,6.394L43.925,11.85a3.417,3.417,0,0,0-3.646-2.695c-1.885,0-2.818.81-2.994,1.761-.123.616.176,1.127,2.167,1.568,1.286.282,5.179,1.057,5.179,1.057,4.157.881,6.094,3.417,6.094,6.693,0,4.932-4.21,7.486-10,7.486-5.161,0-9.6-1.9-10.339-6.464Z" transform="translate(23.132 3.181)" fill="#9bbdff"/>
        <g id="Grupo_29443" data-name="Grupo 29443">
          <path id="Caminho_36179" data-name="Caminho 36179" d="M84.192,12.931a23.127,23.127,0,0,1,.176,2.713A14.866,14.866,0,0,1,70.277,31.18h-1.11A15.606,15.606,0,1,1,68.656,0h.3c6.552,0,12.33,3.118,14.391,8.966L76.3,11.011a7.574,7.574,0,0,0-7.4-4.28,8.508,8.508,0,0,0-8.472,8.543c0,.106,0,.211,0,.335a8.6,8.6,0,0,0,8.3,8.9h.423a7.75,7.75,0,0,0,7.8-5.284H67.934V12.931Z" transform="translate(40.058 0.004)" fill="#9bbdff"/>
          <g id="Grupo_7" data-name="Grupo 7" transform="translate(0 0.165)">
            <g id="Grupo_6" data-name="Grupo 6">
              <g id="Grupo_5" data-name="Grupo 5">
                <path id="Caminho_36180" data-name="Caminho 36180" d="M26.9,29.875H19.675v-11.8H7.345v11.8H0V.09H7.257V11.715H19.675V.09H26.9Z" transform="translate(0 -0.09)" fill="#9bbdff"/>
                <path id="Caminho_36181" data-name="Caminho 36181" d="M40.63,15.787A12.171,12.171,0,1,1,28.106,4h.476a11.7,11.7,0,0,1,12.1,11.255Zm-6.781,0a5.408,5.408,0,1,0-5.284,5.8,5.566,5.566,0,0,0,5.284-5.742h0Z" transform="translate(12.406 2.884)" fill="#9bbdff"/>
                <path id="Caminho_36182" data-name="Caminho 36182" d="M61.227,28.947a11.925,11.925,0,0,1-6.042,1.638c-5.5,0-8.807-3.03-8.807-8.913V13.217h-4V7.546h4V1.662L53.424.13V7.546h6.517v5.672H53.424v7.821c0,2.307,1.092,3.241,2.942,3.241a7.046,7.046,0,0,0,3.223-.881Z" transform="translate(32.268 -0.06)" fill="#9bbdff"/>
                <path id="Caminho_36183" data-name="Caminho 36183" d="M92.632,12.807V26.9H85.851V25.26a9.723,9.723,0,0,1-6.605,2.325c-4.932,0-8.226-2.906-8.226-7.31s3.294-7.222,9.195-7.222h5.637v-.388a2.959,2.959,0,0,0-2.8-3.118h-.317a3.206,3.206,0,0,0-3.681,2.695.229.229,0,0,0,0,.106l-6.676-1.3C73.345,6.73,77.22,4,82.5,4,88.7,4,92.632,7.1,92.632,12.807Zm-6.781,5.284V17.6H81.007c-1.761,0-2.853.951-2.853,2.325s1.233,2.325,3.065,2.325a4.386,4.386,0,0,0,4.632-4.069Z" transform="translate(54.075 2.887)" fill="#9bbdff"/>
                <path id="Caminho_36184" data-name="Caminho 36184" d="M102.727,28.947A11.854,11.854,0,0,1,96.7,30.585c-5.513,0-8.807-3.03-8.807-8.913V13.217H83.88V7.546H87.9V1.662L94.942.13V7.546h6.517v5.672H94.942v7.821c0,2.307,1.092,3.241,2.942,3.241a7.046,7.046,0,0,0,3.223-.881Z" transform="translate(63.867 -0.06)" fill="#9bbdff"/>
                <path id="Caminho_36185" data-name="Caminho 36185" d="M118.3,15.787A12.171,12.171,0,1,1,105.706,4h.493a11.7,11.7,0,0,1,12.1,11.255Zm-6.781,0a5.408,5.408,0,1,0-5.284,5.8,5.566,5.566,0,0,0,5.284-5.76h0Z" transform="translate(71.544 2.884)" fill="#9bbdff"/>
                <path id="Caminho_36186" data-name="Caminho 36186" d="M125.02,4.348l-.3,7.046h-1.286c-4.932,0-7.609,2.589-7.609,8.384v7.046H108.78V6.021l7.046-1.55v4.28a8.472,8.472,0,0,1,7.609-4.58,5.284,5.284,0,0,1,1.585.176Z" transform="translate(82.826 3.015)" fill="#9bbdff"/>
              </g>
            </g>
          </g>
        </g>
      </g>
    </g>
    <g id="cloud-logo" transform="translate(327.955 950.001)">
      <path id="Caminho_28" data-name="Caminho 28" d="M59.123,35.021a15.267,15.267,0,0,1-11.061-4.542A14.748,14.748,0,0,1,43.42,19.552,14.764,14.764,0,0,1,48.063,8.626,15.267,15.267,0,0,1,59.123,4,14.815,14.815,0,0,1,69.731,8.274l-2.983,3.033a10.742,10.742,0,0,0-7.625-3.017,10.625,10.625,0,0,0-7.877,3.352,10.943,10.943,0,0,0-3.234,7.96,10.943,10.943,0,0,0,3.234,7.86,11.245,11.245,0,0,0,15.686.184,8.916,8.916,0,0,0,2.3-5.212H59.174v-4.29H73.4a13.608,13.608,0,0,1,.168,2.614,13.407,13.407,0,0,1-3.67,9.888,14.262,14.262,0,0,1-10.776,4.374ZM92.2,32.172a10.256,10.256,0,0,1-14.195,0,9.552,9.552,0,0,1-2.9-7.122,9.569,9.569,0,0,1,2.9-7.122,10.273,10.273,0,0,1,14.195,0,9.569,9.569,0,0,1,2.9,7.122,9.552,9.552,0,0,1-2.916,7.122Zm-11.061-2.8a5.43,5.43,0,0,0,7.927,0,5.966,5.966,0,0,0,1.676-4.324,5.983,5.983,0,0,0-1.676-4.34,5.514,5.514,0,0,0-7.96,0,5.983,5.983,0,0,0-1.676,4.34,5.966,5.966,0,0,0,1.693,4.324Zm32.88,2.8a10.256,10.256,0,0,1-14.194,0,9.552,9.552,0,0,1-2.9-7.122,9.569,9.569,0,0,1,2.9-7.122,10.256,10.256,0,0,1,14.195,0,9.569,9.569,0,0,1,2.9,7.122,9.552,9.552,0,0,1-2.9,7.122Zm-11.061-2.8a5.43,5.43,0,0,0,7.927,0,5.966,5.966,0,0,0,1.676-4.324,5.983,5.983,0,0,0-1.676-4.34,5.514,5.514,0,0,0-7.96,0,5.983,5.983,0,0,0-1.676,4.34,5.966,5.966,0,0,0,1.693,4.324Zm25.406,14.6a8.782,8.782,0,0,1-5.581-1.776,10.273,10.273,0,0,1-3.251-4.123l3.821-1.592a6.436,6.436,0,0,0,1.894,2.5,4.776,4.776,0,0,0,3.134,1.056,5.028,5.028,0,0,0,3.9-1.508,6.117,6.117,0,0,0,1.391-4.357V32.725h-.151a6.385,6.385,0,0,1-5.245,2.262,9.1,9.1,0,0,1-6.7-2.916,9.636,9.636,0,0,1-2.866-7.022,9.737,9.737,0,0,1,2.866-7.072,9.083,9.083,0,0,1,6.7-2.933,7.206,7.206,0,0,1,3.084.687,6.2,6.2,0,0,1,2.179,1.592h.151V15.732h4.156V33.579a10.407,10.407,0,0,1-2.665,7.793,9.385,9.385,0,0,1-6.821,2.6Zm.3-12.871a4.877,4.877,0,0,0,3.787-1.676,6.2,6.2,0,0,0,1.525-4.29,6.335,6.335,0,0,0-1.525-4.374,4.86,4.86,0,0,0-3.787-1.676,5.178,5.178,0,0,0-3.921,1.676,6.117,6.117,0,0,0-1.676,4.34,6,6,0,0,0,1.676,4.29,5.2,5.2,0,0,0,3.922,1.709ZM145.246,5.123V34.417h-4.374V5.123Zm12,29.9a9.519,9.519,0,0,1-7.055-2.866,9.7,9.7,0,0,1-2.832-7.106,9.82,9.82,0,0,1,2.732-7.173,8.983,8.983,0,0,1,6.7-2.8,8.463,8.463,0,0,1,3.352.654,7.893,7.893,0,0,1,2.564,1.676,11.731,11.731,0,0,1,1.676,2.028,11.979,11.979,0,0,1,.989,1.961l.452,1.14-13.407,5.514a5.028,5.028,0,0,0,4.826,3.017,5.715,5.715,0,0,0,4.91-2.765l3.352,2.262a11.044,11.044,0,0,1-3.218,3.05A9.117,9.117,0,0,1,157.245,35.021Zm-5.6-10.273,8.916-3.7a3.083,3.083,0,0,0-1.391-1.525,4.542,4.542,0,0,0-2.3-.587,5.178,5.178,0,0,0-3.6,1.592,5.312,5.312,0,0,0-1.626,4.223Z" transform="translate(0)" fill="#9bbdff"/>
      <path id="Caminho_29" data-name="Caminho 29" d="M135.8,33.907A13.809,13.809,0,0,1,121.752,19.78,13.809,13.809,0,0,1,135.8,5.652a12.5,12.5,0,0,1,9.938,4.424l-2.413,2.346a9.117,9.117,0,0,0-7.508-3.436,10.239,10.239,0,0,0-7.458,2.983,10.457,10.457,0,0,0-3.033,7.809,10.457,10.457,0,0,0,3.033,7.809,10.239,10.239,0,0,0,7.458,2.983,10.658,10.658,0,0,0,8.379-3.922l2.413,2.413a13.172,13.172,0,0,1-4.642,3.536,14.211,14.211,0,0,1-6.167,1.307Z" transform="translate(52.939 1.113)" fill="#9bbdff"/>
      <path id="Caminho_30" data-name="Caminho 30" d="M141.849,33.065H138.38V6h3.469Z" transform="translate(64.18 1.352)" fill="#9bbdff"/>
      <path id="Caminho_31" data-name="Caminho 31" d="M144.913,13.567a9.7,9.7,0,0,1,13.675,0,9.8,9.8,0,0,1,2.681,7.039,9.8,9.8,0,0,1-2.681,7.039,9.7,9.7,0,0,1-13.675,0,9.8,9.8,0,0,1-2.681-7.039,9.8,9.8,0,0,1,2.681-7.039Zm2.581,11.9a5.849,5.849,0,0,0,8.5,0,6.7,6.7,0,0,0,1.793-4.86,6.7,6.7,0,0,0-1.793-4.86,5.849,5.849,0,0,0-8.5,0,6.7,6.7,0,0,0-1.793,4.86,6.7,6.7,0,0,0,1.81,4.843Z" transform="translate(66.78 4.561)" fill="#9bbdff"/>
      <path id="Caminho_32" data-name="Caminho 32" d="M171.675,29.611h-3.352V27.047h-.1a6.452,6.452,0,0,1-2.447,2.313,6.838,6.838,0,0,1-3.435.922,6.519,6.519,0,0,1-5.262-2.112,8.379,8.379,0,0,1-1.793-5.664V11.11h3.469V21.869q0,5.178,4.575,5.178a4.257,4.257,0,0,0,3.519-1.676,6.318,6.318,0,0,0,1.357-4.005V11.11h3.469Z" transform="translate(75.597 4.806)" fill="#9bbdff"/>
      <path id="Caminho_33" data-name="Caminho 33" d="M175.64,33.668a8.145,8.145,0,0,1-6.2-2.832,10.055,10.055,0,0,1-2.6-7.022,10.055,10.055,0,0,1,2.6-7.022,8.145,8.145,0,0,1,6.2-2.832,7.86,7.86,0,0,1,3.787.9,6.419,6.419,0,0,1,2.514,2.262h.151l-.151-2.564V6h3.469V33.065h-3.352V30.5h-.151a6.419,6.419,0,0,1-2.514,2.262,7.86,7.86,0,0,1-3.754.9Zm.57-3.167a5.53,5.53,0,0,0,4.173-1.81,6.787,6.787,0,0,0,1.676-4.877,6.787,6.787,0,0,0-1.676-4.877,5.664,5.664,0,0,0-8.379,0,6.7,6.7,0,0,0-1.676,4.86A6.7,6.7,0,0,0,172,28.658,5.53,5.53,0,0,0,176.21,30.5Z" transform="translate(83.413 1.352)" fill="#9bbdff"/>
    </g>
    <text id="Através_dos_principais_provedores_do_mercado" data-name="Através dos principais
provedores do mercado" transform="translate(50 966)" fill="#9bbdff" font-size="21" font-family="Montserrat-Regular, Montserrat"><tspan x="0" y="0">Através dos principais</tspan><tspan x="0" y="25">provedores do mercado</tspan></text>
  </g>
</svg>
