<svg xmlns="http://www.w3.org/2000/svg" width="1123.231" height="44.656" viewBox="0 0 1123.231 44.656">
  <g id="provedores" transform="translate(-50.042 -950.418)">
    <g id="hostgator" transform="translate(601.227 958.937)">
      <g id="Grupo_8" data-name="Grupo 8" transform="translate(0 0)">
        <path id="Caminho_23" data-name="Caminho 23" d="M35.89,16.9c.257,1.542,1.642,2.113,3.169,2.113s2.684-.642,2.712-1.427c0-1.2-.871-1.913-2.184-2.17L35.961,14.7c-3.3-.6-5.181-1.57-5.181-4.425,0-3.7,3.155-6.109,7.665-6.109s7.394,2.055,8.108,5.181l-5.2,1.042A2.769,2.769,0,0,0,38.4,8.21c-1.527,0-2.284.657-2.427,1.427-.1.5.143.914,1.756,1.27,1.042.228,4.2.856,4.2.856,3.369.714,4.939,2.769,4.939,5.424,0,4-3.411,6.066-8.108,6.066-4.182,0-7.779-1.542-8.379-5.239Z" transform="translate(12.985 1.787)" fill="#9bbdff"/>
        <g id="Grupo_29443" data-name="Grupo 29443">
          <path id="Caminho_36179" data-name="Caminho 36179" d="M78.2,10.479a18.742,18.742,0,0,1,.143,2.2,12.047,12.047,0,0,1-11.419,12.59h-.9A12.647,12.647,0,1,1,65.614,0h.243c5.31,0,9.992,2.527,11.662,7.266l-5.71,1.656a6.138,6.138,0,0,0-6-3.469,6.894,6.894,0,0,0-6.866,6.923c0,.086,0,.171,0,.271a6.966,6.966,0,0,0,6.723,7.208h.343a6.281,6.281,0,0,0,6.323-4.282H65.028v-5.1Z" transform="translate(22.486 0.004)" fill="#9bbdff"/>
          <g id="Grupo_7" data-name="Grupo 7" transform="translate(0 0.134)">
            <g id="Grupo_6" data-name="Grupo 6">
              <g id="Grupo_5" data-name="Grupo 5">
                <path id="Caminho_36180" data-name="Caminho 36180" d="M21.8,24.227H15.944V14.664H5.952v9.564H0V.09H5.881V9.511H15.944V.09H21.8Z" transform="translate(0 -0.09)" fill="#9bbdff"/>
                <path id="Caminho_36181" data-name="Caminho 36181" d="M36.015,13.551A9.863,9.863,0,1,1,25.866,4h.385a9.478,9.478,0,0,1,9.806,9.121Zm-5.5,0a4.382,4.382,0,1,0-4.282,4.7,4.511,4.511,0,0,0,4.282-4.653h0Z" transform="translate(6.964 1.579)" fill="#9bbdff"/>
                <path id="Caminho_36182" data-name="Caminho 36182" d="M57.653,23.482a9.664,9.664,0,0,1-4.9,1.327c-4.454,0-7.137-2.455-7.137-7.223V10.736H42.38v-4.6h3.24V1.372L51.33.13V6.139h5.281v4.6H51.33v6.338c0,1.87.885,2.626,2.384,2.626a5.71,5.71,0,0,0,2.612-.714Z" transform="translate(18.113 -0.073)" fill="#9bbdff"/>
                <path id="Caminho_36183" data-name="Caminho 36183" d="M88.534,11.137V22.556h-5.5V21.229a7.879,7.879,0,0,1-5.353,1.884c-4,0-6.666-2.355-6.666-5.924s2.669-5.852,7.451-5.852h4.568v-.314A2.4,2.4,0,0,0,80.769,8.5h-.257a2.6,2.6,0,0,0-2.983,2.184.185.185,0,0,0,0,.086L72.119,9.71C72.9,6.212,76.044,4,80.327,4,85.351,4,88.534,6.512,88.534,11.137Zm-5.5,4.282v-.4H79.113c-1.427,0-2.312.771-2.312,1.884s1,1.884,2.484,1.884a3.554,3.554,0,0,0,3.754-3.3Z" transform="translate(30.354 1.581)" fill="#9bbdff"/>
                <path id="Caminho_36184" data-name="Caminho 36184" d="M99.153,23.482a9.606,9.606,0,0,1-4.882,1.327c-4.468,0-7.137-2.455-7.137-7.223V10.736H83.88v-4.6h3.254V1.372L92.844.13V6.139h5.281v4.6H92.844v6.338c0,1.87.885,2.626,2.384,2.626a5.71,5.71,0,0,0,2.612-.714Z" transform="translate(35.851 -0.073)" fill="#9bbdff"/>
                <path id="Caminho_36185" data-name="Caminho 36185" d="M113.685,13.551A9.863,9.863,0,1,1,103.479,4h.4a9.478,9.478,0,0,1,9.806,9.121Zm-5.5,0a4.382,4.382,0,1,0-4.282,4.7,4.511,4.511,0,0,0,4.282-4.668h0Z" transform="translate(40.16 1.579)" fill="#9bbdff"/>
                <path id="Caminho_36186" data-name="Caminho 36186" d="M121.941,4.314l-.243,5.71h-1.042c-4,0-6.166,2.1-6.166,6.794v5.71h-5.71V5.67l5.71-1.256V7.882a6.866,6.866,0,0,1,6.166-3.711,4.282,4.282,0,0,1,1.285.143Z" transform="translate(46.493 1.653)" fill="#9bbdff"/>
              </g>
            </g>
          </g>
        </g>
      </g>
    </g>
    <g id="cloud-logo" transform="translate(375.435 957.652)">
      <path id="Caminho_28" data-name="Caminho 28" d="M56.145,29.138a12.372,12.372,0,0,1-8.963-3.68A11.951,11.951,0,0,1,43.42,16.6a11.965,11.965,0,0,1,3.762-8.855A12.372,12.372,0,0,1,56.145,4a12.005,12.005,0,0,1,8.6,3.463L62.325,9.922a8.705,8.705,0,0,0-6.179-2.445,8.61,8.61,0,0,0-6.383,2.716,8.868,8.868,0,0,0-2.621,6.451,8.868,8.868,0,0,0,2.621,6.369,9.113,9.113,0,0,0,12.712.149,7.225,7.225,0,0,0,1.861-4.224H56.186V15.462h11.53a11.028,11.028,0,0,1,.136,2.119,10.865,10.865,0,0,1-2.974,8.013,11.557,11.557,0,0,1-8.732,3.545ZM82.954,26.83a8.311,8.311,0,0,1-11.5,0A7.741,7.741,0,0,1,69.1,21.058a7.755,7.755,0,0,1,2.349-5.772,8.325,8.325,0,0,1,11.5,0A7.755,7.755,0,0,1,85.3,21.058,7.741,7.741,0,0,1,82.94,26.83Zm-8.963-2.268a4.4,4.4,0,0,0,6.424,0,4.835,4.835,0,0,0,1.358-3.5,4.848,4.848,0,0,0-1.358-3.517,4.468,4.468,0,0,0-6.451,0,4.848,4.848,0,0,0-1.358,3.517,4.835,4.835,0,0,0,1.372,3.5Zm26.645,2.268a8.311,8.311,0,0,1-11.5,0,7.741,7.741,0,0,1-2.349-5.772,7.755,7.755,0,0,1,2.349-5.772,8.311,8.311,0,0,1,11.5,0,7.755,7.755,0,0,1,2.349,5.772,7.741,7.741,0,0,1-2.349,5.772Zm-8.963-2.268a4.4,4.4,0,0,0,6.424,0,4.835,4.835,0,0,0,1.358-3.5A4.848,4.848,0,0,0,98.1,17.54a4.468,4.468,0,0,0-6.451,0,4.848,4.848,0,0,0-1.358,3.517,4.835,4.835,0,0,0,1.372,3.5ZM112.261,36.39a7.116,7.116,0,0,1-4.522-1.44A8.325,8.325,0,0,1,105.1,31.61l3.1-1.29a5.215,5.215,0,0,0,1.535,2.024,3.871,3.871,0,0,0,2.54.856,4.074,4.074,0,0,0,3.164-1.222,4.957,4.957,0,0,0,1.127-3.531V27.278h-.122a5.174,5.174,0,0,1-4.251,1.833,7.374,7.374,0,0,1-5.432-2.363,7.809,7.809,0,0,1-2.322-5.69,7.89,7.89,0,0,1,2.322-5.731,7.361,7.361,0,0,1,5.432-2.377,5.84,5.84,0,0,1,2.5.557,5.025,5.025,0,0,1,1.766,1.29h.122v-1.29h3.368V27.97a8.434,8.434,0,0,1-2.159,6.315,7.605,7.605,0,0,1-5.527,2.105Zm.244-10.43a3.952,3.952,0,0,0,3.069-1.358,5.025,5.025,0,0,0,1.236-3.477,5.133,5.133,0,0,0-1.236-3.545,3.938,3.938,0,0,0-3.069-1.358,4.2,4.2,0,0,0-3.178,1.358A4.957,4.957,0,0,0,107.97,21.1a4.862,4.862,0,0,0,1.358,3.477,4.21,4.21,0,0,0,3.178,1.385ZM125.937,4.91V28.649h-3.545V4.91Zm9.724,24.228a7.714,7.714,0,0,1-5.717-2.322,7.863,7.863,0,0,1-2.3-5.758,7.958,7.958,0,0,1,2.214-5.813,7.279,7.279,0,0,1,5.432-2.268,6.858,6.858,0,0,1,2.716.53,6.4,6.4,0,0,1,2.078,1.358,9.507,9.507,0,0,1,1.358,1.643,9.71,9.71,0,0,1,.8,1.589l.367.923L131.75,23.489a4.074,4.074,0,0,0,3.911,2.445,4.631,4.631,0,0,0,3.979-2.241l2.716,1.833A8.949,8.949,0,0,1,139.749,28,7.388,7.388,0,0,1,135.661,29.138Zm-4.536-8.325,7.225-3a2.5,2.5,0,0,0-1.127-1.236,3.68,3.68,0,0,0-1.861-.475,4.2,4.2,0,0,0-2.92,1.29A4.305,4.305,0,0,0,131.125,20.813Z" transform="translate(-43.419 -3.999)" fill="#9bbdff"/>
      <path id="Caminho_29" data-name="Caminho 29" d="M133.131,28.549A11.191,11.191,0,0,1,121.751,17.1,11.191,11.191,0,0,1,133.131,5.651a10.131,10.131,0,0,1,8.053,3.585l-1.956,1.9a7.388,7.388,0,0,0-6.084-2.784,8.3,8.3,0,0,0-6.043,2.417,8.474,8.474,0,0,0-2.458,6.329,8.474,8.474,0,0,0,2.458,6.329,8.3,8.3,0,0,0,6.043,2.417,8.637,8.637,0,0,0,6.79-3.178l1.956,1.956a10.674,10.674,0,0,1-3.762,2.866,11.516,11.516,0,0,1-5,1.059Z" transform="translate(-15.372 -3.409)" fill="#9bbdff"/>
      <path id="Caminho_30" data-name="Caminho 30" d="M141.191,27.933H138.38V6h2.811Z" transform="translate(-9.416 -3.283)" fill="#9bbdff"/>
      <path id="Caminho_31" data-name="Caminho 31" d="M144.4,13.032a7.863,7.863,0,0,1,11.082,0,7.945,7.945,0,0,1,2.173,5.7,7.945,7.945,0,0,1-2.173,5.7,7.863,7.863,0,0,1-11.082,0,7.945,7.945,0,0,1-2.173-5.7,7.945,7.945,0,0,1,2.173-5.7Zm2.091,9.642a4.74,4.74,0,0,0,6.885,0,5.432,5.432,0,0,0,1.453-3.938,5.432,5.432,0,0,0-1.453-3.938,4.74,4.74,0,0,0-6.885,0,5.432,5.432,0,0,0-1.453,3.938,5.432,5.432,0,0,0,1.467,3.925Z" transform="translate(-8.038 -1.583)" fill="#9bbdff"/>
      <path id="Caminho_32" data-name="Caminho 32" d="M168.565,26.1h-2.716V24.025h-.081a5.229,5.229,0,0,1-1.983,1.874,5.541,5.541,0,0,1-2.784.747,5.283,5.283,0,0,1-4.264-1.711,6.79,6.79,0,0,1-1.453-4.59V11.11h2.811v8.719q0,4.2,3.708,4.2a3.449,3.449,0,0,0,2.852-1.358,5.12,5.12,0,0,0,1.1-3.246V11.11h2.811Z" transform="translate(-3.367 -1.453)" fill="#9bbdff"/>
      <path id="Caminho_33" data-name="Caminho 33" d="M173.971,28.422a6.6,6.6,0,0,1-5.025-2.3,8.148,8.148,0,0,1-2.1-5.69,8.148,8.148,0,0,1,2.1-5.69,6.6,6.6,0,0,1,5.025-2.3,6.369,6.369,0,0,1,3.069.733,5.2,5.2,0,0,1,2.037,1.833h.122l-.122-2.078V6h2.811V27.933h-2.716V25.855h-.122a5.2,5.2,0,0,1-2.037,1.833,6.369,6.369,0,0,1-3.042.733Zm.462-2.567a4.482,4.482,0,0,0,3.382-1.467,5.5,5.5,0,0,0,1.358-3.952,5.5,5.5,0,0,0-1.358-3.952,4.59,4.59,0,0,0-6.79,0,5.432,5.432,0,0,0-1.358,3.938,5.432,5.432,0,0,0,1.358,3.938A4.482,4.482,0,0,0,174.432,25.855Z" transform="translate(0.774 -3.283)" fill="#9bbdff"/>
    </g>
    <path id="kaspersky-logo" d="M76.815,23.91c0,6.295-3.84,9.271-8.647,9.271H65.23V29.4h2.709c2.9,0,4.832-1.564,4.832-5.493,0-3.891-1.828-5.837-4.918-5.837-2.976,0-5.1,1.832-5.1,5.761V39.628H58.744V14.791H62.75v2.137h.572a6.5,6.5,0,0,1,5.37-2.595C73.118,14.333,76.815,17.538,76.815,23.91ZM50.488,22.269,47.817,22c-2.1-.191-3.2-.763-3.2-1.984,0-1.45,1.412-2.289,3.434-2.289,2.1,0,3.434.992,3.548,2.4h3.853c-.153-3.586-2.938-5.8-7.363-5.8-4.464,0-7.478,2.365-7.478,5.837,0,2.9,1.831,4.769,5.99,5.189l2.709.267c1.641.153,2.747.5,2.747,2.06,0,1.412-1.03,2.442-3.739,2.442-2.494,0-3.723-1.132-4.155-2.649H39.99c.415,3.468,3.329,6.159,8.323,6.159,4.693,0,7.745-2.48,7.745-6.142C56.058,24.253,53.921,22.612,50.488,22.269Zm41.842,5.21a4.432,4.432,0,0,1-4.261,2.535c-2.938,0-5.112-1.908-5.112-6.028,0-3.93,2.022-6.1,5.15-6.1a4.184,4.184,0,0,1,4.54,4.2H85.436v2.9h11.14V23.07c0-5.3-3.51-8.737-8.508-8.737-4.654,0-9.118,3.167-9.118,9.652s4.464,9.652,9.118,9.652a8.213,8.213,0,0,0,8.236-6.159ZM29.18,14.333c-4.387,0-7.668,2.289-8.05,5.8h4.311c.305-1.3,1.488-2.251,3.739-2.251,2.9,0,3.853,1.526,3.853,3.4v6.295a7.249,7.249,0,0,1-5.456,2.747c-1.984,0-3.357-.954-3.357-2.67,0-1.641,1.068-2.671,3.128-2.671h3.2v-2.9H27.234c-4.578,0-7.134,2.289-7.134,5.8,0,3.281,2.48,5.761,6.562,5.761a9.83,9.83,0,0,0,5.8-2.022h.572V33.18h4.006V20.9C37.039,16.355,33.949,14.333,29.18,14.333ZM2,33.18H6.006V8H2ZM18.825,14.791H13.941L8.1,22.46v2.4l5.99,8.317h4.96l-7.02-9.538Zm144.814,0-3.281,7.287a25.875,25.875,0,0,0-1.793,4.617h-.573a26.265,26.265,0,0,0-1.831-4.578l-3.281-7.325h-4.426l7.707,16.52-3.815,8.317h4.273l11.445-24.837Zm-16.07,0h-4.883l-5.837,7.669v2.4l5.99,8.317h4.96l-7.02-9.538Zm-25.081,7.478L119.817,22c-2.1-.191-3.2-.763-3.2-1.984,0-1.45,1.412-2.289,3.434-2.289,2.1,0,3.434.992,3.548,2.4h3.853c-.153-3.586-2.938-5.8-7.363-5.8-4.464,0-7.478,2.365-7.478,5.837,0,2.9,1.831,4.769,5.99,5.189l2.709.267c1.64.153,2.747.5,2.747,2.06,0,1.412-1.03,2.442-3.739,2.442-2.494,0-3.723-1.132-4.155-2.649h-4.169c.415,3.468,3.329,6.159,8.323,6.159,4.693,0,7.745-2.48,7.745-6.142C128.058,24.253,125.921,22.612,122.487,22.269Zm8.256,10.911h4.006V8h-4.006ZM104.328,16.928h-.572V14.791H99.75V33.18h4.006V23.566c0-3.281,1.516-5.189,4.5-5.189h2.536V14.333h-1.468A5.234,5.234,0,0,0,104.328,16.928Z" transform="translate(810.799 950.653)" fill="#9bbdff"/>
    <path id="Caminho_66" data-name="Caminho 66" d="M183.416,38.9l-1.249,3.538h-.1a25.116,25.116,0,0,0-1.214-3.468l-6.694-16.821H167.6v26.81h4.335V32.413c0-1.04,0-2.22-.035-3.676-.035-.728-.1-1.283-.139-1.7h.1a16.2,16.2,0,0,0,.624,2.289l8.046,19.561h3.052l7.977-19.735a21.006,21.006,0,0,0,.52-2.116h.1c-.1,1.977-.173,3.746-.208,4.821V48.852H196.6V22.077h-6.312Zm17.55-9.26h4.509V48.852h-4.509Zm2.289-8.116a2.7,2.7,0,0,0-1.908.763,2.557,2.557,0,0,0,0,3.711,2.673,2.673,0,0,0,1.908.728A2.766,2.766,0,0,0,205.162,26a2.44,2.44,0,0,0,.8-1.838,2.571,2.571,0,0,0-.8-1.873,2.53,2.53,0,0,0-1.908-.763m18.209,7.942a12.576,12.576,0,0,0-2.532-.277,10.881,10.881,0,0,0-5.48,1.353,9.058,9.058,0,0,0-3.607,3.711A11.8,11.8,0,0,0,208.6,39.8a10.294,10.294,0,0,0,1.214,4.96,8.314,8.314,0,0,0,3.4,3.434,10.006,10.006,0,0,0,4.96,1.214,10.9,10.9,0,0,0,5.445-1.283l.035-.035V43.927l-.173.139a7.751,7.751,0,0,1-2.185,1.145,6.684,6.684,0,0,1-2.15.416,5.32,5.32,0,0,1-4.231-1.665,6.4,6.4,0,0,1-1.561-4.544,6.556,6.556,0,0,1,1.6-4.682A5.567,5.567,0,0,1,219.174,33a7.381,7.381,0,0,1,4.3,1.457l.173.139v-4.4l-.035-.035a10.458,10.458,0,0,0-2.15-.694m14.879-.139A4.758,4.758,0,0,0,233.29,30.4a6.471,6.471,0,0,0-1.734,2.6h-.035V29.638h-4.509V48.852h4.509V39.037a6.618,6.618,0,0,1,1.11-4.058,3.476,3.476,0,0,1,2.913-1.561,11.124,11.124,0,0,1,1.353.173,3.558,3.558,0,0,1,1.075.451l.173.139V29.673l-.1-.035a3.427,3.427,0,0,0-1.7-.312m12.278-.1A9.943,9.943,0,0,0,241.163,32a10.331,10.331,0,0,0-2.671,7.561,9.887,9.887,0,0,0,2.636,7.179,10.83,10.83,0,0,0,14.359-.173,10.3,10.3,0,0,0,2.671-7.457,10.036,10.036,0,0,0-2.532-7.249,9.128,9.128,0,0,0-7.006-2.636M252.227,44a4.546,4.546,0,0,1-3.78,1.6,4.737,4.737,0,0,1-3.885-1.665,6.851,6.851,0,0,1-1.387-4.613,7.282,7.282,0,0,1,1.387-4.717,4.769,4.769,0,0,1,3.85-1.665,4.612,4.612,0,0,1,3.746,1.6,7.113,7.113,0,0,1,1.387,4.682A8.024,8.024,0,0,1,252.227,44m15.989-6.382a10.8,10.8,0,0,1-2.74-1.422,1.969,1.969,0,0,1-.52-1.457,1.611,1.611,0,0,1,.728-1.387,3.342,3.342,0,0,1,1.977-.52,8.978,8.978,0,0,1,2.324.347,5.981,5.981,0,0,1,2.012.936l.173.139V30.019l-.1-.035a12.514,12.514,0,0,0-2.046-.59,13.9,13.9,0,0,0-2.22-.208,8.036,8.036,0,0,0-5.306,1.665,5.127,5.127,0,0,0-2.046,4.231,5.506,5.506,0,0,0,.451,2.358,5.257,5.257,0,0,0,1.387,1.8,12.087,12.087,0,0,0,2.775,1.561c1.041.451,1.838.8,2.324,1.075a4.707,4.707,0,0,1,1.04.832,1.972,1.972,0,0,1,.277,1.075c0,1.283-.971,1.908-2.948,1.908a7.784,7.784,0,0,1-2.5-.451,9.649,9.649,0,0,1-2.532-1.283l-.173-.139v4.4l.1.035a13.453,13.453,0,0,0,2.428.763,15.486,15.486,0,0,0,2.6.312,8.446,8.446,0,0,0,5.584-1.665,5.311,5.311,0,0,0,2.116-4.37,4.863,4.863,0,0,0-1.11-3.295,14.063,14.063,0,0,0-4.058-2.393m17.064-8.393A9.943,9.943,0,0,0,277.823,32a10.477,10.477,0,0,0-2.671,7.561,9.887,9.887,0,0,0,2.636,7.179,10.83,10.83,0,0,0,14.359-.173,10.3,10.3,0,0,0,2.671-7.457,10.036,10.036,0,0,0-2.532-7.249,9.128,9.128,0,0,0-7.006-2.636M288.852,44a4.546,4.546,0,0,1-3.78,1.6,4.692,4.692,0,0,1-3.885-1.665,6.851,6.851,0,0,1-1.387-4.613,7.282,7.282,0,0,1,1.387-4.717,4.77,4.77,0,0,1,3.85-1.665,4.659,4.659,0,0,1,3.746,1.6,7.114,7.114,0,0,1,1.387,4.682A7.567,7.567,0,0,1,288.852,44m30.07-10.648V29.638h-4.543V23.95l-.139.035-4.3,1.283-.1.035v4.335h-6.8V27.21a3.8,3.8,0,0,1,.763-2.532,2.693,2.693,0,0,1,2.116-.832,5.06,5.06,0,0,1,2.012.451l.173.1V20.482l-.1-.035a8.673,8.673,0,0,0-6.139.486,6.016,6.016,0,0,0-2.462,2.463,7.1,7.1,0,0,0-.9,3.572v2.671h-3.156v3.676h3.156V48.852h4.543v-15.5h6.8v9.885c0,4.058,1.908,6.1,5.723,6.1a11.885,11.885,0,0,0,1.908-.208,6.241,6.241,0,0,0,1.422-.451l.035-.035V44.933l-.173.139a2.931,2.931,0,0,1-.936.416,3.175,3.175,0,0,1-.9.139,2.4,2.4,0,0,1-1.977-.728,3.756,3.756,0,0,1-.624-2.463V33.349h4.613Z" transform="translate(854.35 935.284)" fill="#9bbdff"/>
    <path id="Caminho_67" data-name="Caminho 67" d="M11.613-3.927H3.423L1.659,0H.042l6.72-14.7H8.3L15.015,0H13.377Zm-.567-1.26-3.528-7.9L3.99-5.187Zm11.8,4.515a2.823,2.823,0,0,1-1.039.578,4.187,4.187,0,0,1-1.292.2,3.239,3.239,0,0,1-2.394-.84,3.209,3.209,0,0,1-.84-2.373V-9.786H15.309v-1.26h1.974v-2.415h1.491v2.415h3.36v1.26h-3.36v6.594a2.087,2.087,0,0,0,.493,1.5,1.873,1.873,0,0,0,1.417.515,2.743,2.743,0,0,0,.892-.147,2.219,2.219,0,0,0,.746-.42Zm4.137-8.211a3.613,3.613,0,0,1,1.565-1.68,5.316,5.316,0,0,1,2.573-.567v1.449L30.765-9.7a3.528,3.528,0,0,0-2.73,1.071,4.267,4.267,0,0,0-.987,3V0H25.557V-11.046h1.428ZM37.653-11.13a4.676,4.676,0,0,1,3.318,1.082,4.179,4.179,0,0,1,1.155,3.2V0H40.7V-1.722a3.419,3.419,0,0,1-1.48,1.344A5.182,5.182,0,0,1,36.9.105a4.544,4.544,0,0,1-2.94-.882,2.848,2.848,0,0,1-1.092-2.331,2.824,2.824,0,0,1,1.018-2.268,4.984,4.984,0,0,1,3.245-.861h3.507v-.672a2.831,2.831,0,0,0-.8-2.174,3.3,3.3,0,0,0-2.331-.745,5.926,5.926,0,0,0-2.016.346,5.08,5.08,0,0,0-1.659.956l-.672-1.113a5.959,5.959,0,0,1,2.016-1.1A7.849,7.849,0,0,1,37.653-11.13ZM37.128-1.071a3.929,3.929,0,0,0,2.163-.577,3.448,3.448,0,0,0,1.344-1.669V-5.124H37.17q-2.835,0-2.835,1.974a1.806,1.806,0,0,0,.735,1.523A3.346,3.346,0,0,0,37.128-1.071Zm18.123-9.975L50.337,0H48.8L43.911-11.046h1.554L49.6-1.638l4.179-9.408Zm11.4,5.985h-9.24a3.948,3.948,0,0,0,1.323,2.783,4.392,4.392,0,0,0,3.024,1.061,4.765,4.765,0,0,0,1.89-.368,4.129,4.129,0,0,0,1.491-1.081l.84.966A4.73,4.73,0,0,1,64.145-.357a6.215,6.215,0,0,1-2.425.462A6.133,6.133,0,0,1,58.706-.62a5.223,5.223,0,0,1-2.048-2.005,5.718,5.718,0,0,1-.735-2.9,5.92,5.92,0,0,1,.7-2.9,5.094,5.094,0,0,1,1.932-1.995,5.394,5.394,0,0,1,2.761-.714,5.338,5.338,0,0,1,2.751.714,5.061,5.061,0,0,1,1.911,1.984,5.975,5.975,0,0,1,.693,2.909ZM61.32-9.849a3.756,3.756,0,0,0-2.677,1.018,4,4,0,0,0-1.229,2.657h7.833a4,4,0,0,0-1.229-2.657A3.783,3.783,0,0,0,61.32-9.849Zm1.512-5.523h2l-3.4,2.6h-1.47ZM72.681.105a8.481,8.481,0,0,1-2.573-.389,5.533,5.533,0,0,1-1.922-.976l.672-1.176a5.658,5.658,0,0,0,1.743.893,6.924,6.924,0,0,0,2.184.346,4.171,4.171,0,0,0,2.237-.473A1.5,1.5,0,0,0,75.747-3a1.2,1.2,0,0,0-.4-.955,2.65,2.65,0,0,0-1.008-.525,14.378,14.378,0,0,0-1.617-.346,18.538,18.538,0,0,1-2.163-.515,3.178,3.178,0,0,1-1.4-.893,2.483,2.483,0,0,1-.577-1.743,2.732,2.732,0,0,1,1.155-2.268,5.186,5.186,0,0,1,3.213-.882,8.34,8.34,0,0,1,2.142.284,5.894,5.894,0,0,1,1.764.745l-.651,1.2a5.575,5.575,0,0,0-3.255-.945,3.775,3.775,0,0,0-2.153.5,1.544,1.544,0,0,0-.725,1.323,1.306,1.306,0,0,0,.41,1.008,2.519,2.519,0,0,0,1.019.557,16.435,16.435,0,0,0,1.68.367,19.326,19.326,0,0,1,2.121.5,3.116,3.116,0,0,1,1.365.861,2.369,2.369,0,0,1,.567,1.68,2.672,2.672,0,0,1-1.207,2.3A5.74,5.74,0,0,1,72.681.105Zm22.89-15.687V0H94.143V-2.184a4.547,4.547,0,0,1-1.775,1.7A5.2,5.2,0,0,1,89.88.105a5.607,5.607,0,0,1-2.814-.714,5.1,5.1,0,0,1-1.974-2,5.893,5.893,0,0,1-.714-2.919,5.893,5.893,0,0,1,.714-2.919,5.031,5.031,0,0,1,1.974-1.984,5.673,5.673,0,0,1,2.814-.7,5.223,5.223,0,0,1,2.425.557A4.6,4.6,0,0,1,94.08-8.946v-6.636ZM90.006-1.218a4.127,4.127,0,0,0,2.09-.536,3.8,3.8,0,0,0,1.47-1.522A4.636,4.636,0,0,0,94.1-5.523a4.636,4.636,0,0,0-.535-2.247A3.8,3.8,0,0,0,92.1-9.293a4.127,4.127,0,0,0-2.09-.535,4.168,4.168,0,0,0-2.111.535,3.8,3.8,0,0,0-1.47,1.523,4.636,4.636,0,0,0-.535,2.247,4.636,4.636,0,0,0,.535,2.247A3.8,3.8,0,0,0,87.9-1.754,4.168,4.168,0,0,0,90.006-1.218ZM104.244.105a5.741,5.741,0,0,1-2.877-.725,5.284,5.284,0,0,1-2.016-2.005,5.718,5.718,0,0,1-.735-2.9,5.718,5.718,0,0,1,.735-2.9,5.209,5.209,0,0,1,2.016-1.995,5.808,5.808,0,0,1,2.877-.714,5.808,5.808,0,0,1,2.877.714,5.136,5.136,0,0,1,2.006,1.995,5.783,5.783,0,0,1,.725,2.9,5.783,5.783,0,0,1-.725,2.9A5.209,5.209,0,0,1,107.121-.62,5.741,5.741,0,0,1,104.244.105Zm0-1.323a4.168,4.168,0,0,0,2.11-.536,3.733,3.733,0,0,0,1.46-1.522,4.711,4.711,0,0,0,.525-2.247,4.711,4.711,0,0,0-.525-2.247,3.733,3.733,0,0,0-1.46-1.523,4.168,4.168,0,0,0-2.11-.535,4.168,4.168,0,0,0-2.111.535,3.8,3.8,0,0,0-1.47,1.523,4.636,4.636,0,0,0-.535,2.247,4.636,4.636,0,0,0,.535,2.247,3.8,3.8,0,0,0,1.47,1.522A4.168,4.168,0,0,0,104.244-1.218ZM115.857.105a8.481,8.481,0,0,1-2.573-.389,5.533,5.533,0,0,1-1.922-.976l.672-1.176a5.658,5.658,0,0,0,1.743.893,6.924,6.924,0,0,0,2.184.346A4.171,4.171,0,0,0,118.2-1.67,1.5,1.5,0,0,0,118.923-3a1.2,1.2,0,0,0-.4-.955,2.65,2.65,0,0,0-1.008-.525A14.378,14.378,0,0,0,115.9-4.83a18.538,18.538,0,0,1-2.163-.515,3.178,3.178,0,0,1-1.4-.893,2.483,2.483,0,0,1-.577-1.743,2.732,2.732,0,0,1,1.155-2.268,5.186,5.186,0,0,1,3.213-.882,8.34,8.34,0,0,1,2.142.284,5.894,5.894,0,0,1,1.764.745l-.651,1.2a5.575,5.575,0,0,0-3.255-.945,3.775,3.775,0,0,0-2.153.5,1.544,1.544,0,0,0-.725,1.323,1.306,1.306,0,0,0,.41,1.008,2.519,2.519,0,0,0,1.019.557,16.435,16.435,0,0,0,1.68.367,19.326,19.326,0,0,1,2.121.5,3.116,3.116,0,0,1,1.365.861,2.369,2.369,0,0,1,.567,1.68,2.672,2.672,0,0,1-1.207,2.3A5.74,5.74,0,0,1,115.857.105Zm18.5-11.235a5.673,5.673,0,0,1,2.814.7,5.031,5.031,0,0,1,1.974,1.984,5.893,5.893,0,0,1,.714,2.919,5.937,5.937,0,0,1-.714,2.94A5.051,5.051,0,0,1,137.182-.6a5.656,5.656,0,0,1-2.825.7,5.223,5.223,0,0,1-2.425-.557,4.6,4.6,0,0,1-1.775-1.628V4.074h-1.491v-15.12h1.428v2.184a4.593,4.593,0,0,1,1.775-1.68A5.2,5.2,0,0,1,134.358-11.13Zm-.1,9.912a4.185,4.185,0,0,0,2.1-.536,3.783,3.783,0,0,0,1.48-1.522,4.636,4.636,0,0,0,.535-2.247,4.575,4.575,0,0,0-.535-2.236,3.872,3.872,0,0,0-1.48-1.523,4.122,4.122,0,0,0-2.1-.546,4.105,4.105,0,0,0-2.111.546,3.894,3.894,0,0,0-1.47,1.523,4.575,4.575,0,0,0-.535,2.236,4.636,4.636,0,0,0,.535,2.247,3.8,3.8,0,0,0,1.47,1.522A4.168,4.168,0,0,0,134.253-1.218Zm10.08-7.665a3.613,3.613,0,0,1,1.564-1.68,5.316,5.316,0,0,1,2.572-.567v1.449l-.357-.021a3.528,3.528,0,0,0-2.73,1.071,4.267,4.267,0,0,0-.987,3V0H142.9V-11.046h1.428Zm6.825-2.163h1.491V0h-1.491Zm.756-2.415a1.056,1.056,0,0,1-.777-.315,1.031,1.031,0,0,1-.315-.756,1.007,1.007,0,0,1,.315-.735,1.056,1.056,0,0,1,.777-.315,1.075,1.075,0,0,1,.777.3.973.973,0,0,1,.315.724,1.056,1.056,0,0,1-.315.777A1.056,1.056,0,0,1,151.914-13.461Zm10.521,2.331a4.513,4.513,0,0,1,3.307,1.208,4.716,4.716,0,0,1,1.229,3.518V0H165.48V-6.258a3.661,3.661,0,0,0-.861-2.625,3.234,3.234,0,0,0-2.457-.9,3.774,3.774,0,0,0-2.825,1.061A4.005,4.005,0,0,0,158.3-5.8V0h-1.491V-11.046h1.428v2.037a4.148,4.148,0,0,1,1.69-1.564A5.411,5.411,0,0,1,162.435-11.13ZM175.644.105a5.953,5.953,0,0,1-2.93-.714,5.169,5.169,0,0,1-2.026-2.006,5.775,5.775,0,0,1-.735-2.909,5.718,5.718,0,0,1,.735-2.9,5.189,5.189,0,0,1,2.026-1.995,5.953,5.953,0,0,1,2.93-.714,5.672,5.672,0,0,1,2.551.557,4.237,4.237,0,0,1,1.775,1.627l-1.113.756a3.482,3.482,0,0,0-1.386-1.228,4.113,4.113,0,0,0-1.827-.41,4.326,4.326,0,0,0-2.152.535A3.763,3.763,0,0,0,172-7.77a4.636,4.636,0,0,0-.536,2.247A4.619,4.619,0,0,0,172-3.266a3.78,3.78,0,0,0,1.491,1.512,4.326,4.326,0,0,0,2.152.536,4.2,4.2,0,0,0,1.827-.4,3.4,3.4,0,0,0,1.386-1.218l1.113.756a4.223,4.223,0,0,1-1.785,1.628A5.691,5.691,0,0,1,175.644.105Zm7.245-11.151h1.491V0h-1.491Zm.756-2.415a1.056,1.056,0,0,1-.777-.315,1.031,1.031,0,0,1-.315-.756,1.007,1.007,0,0,1,.315-.735,1.056,1.056,0,0,1,.777-.315,1.075,1.075,0,0,1,.777.3.973.973,0,0,1,.315.724,1.056,1.056,0,0,1-.315.777A1.056,1.056,0,0,1,183.645-13.461Zm10.584,2.331a5.673,5.673,0,0,1,2.814.7,5.031,5.031,0,0,1,1.974,1.984,5.893,5.893,0,0,1,.714,2.919,5.937,5.937,0,0,1-.714,2.94A5.051,5.051,0,0,1,197.053-.6a5.656,5.656,0,0,1-2.824.7A5.223,5.223,0,0,1,191.8-.452a4.6,4.6,0,0,1-1.774-1.628V4.074h-1.491v-15.12h1.428v2.184a4.593,4.593,0,0,1,1.774-1.68A5.2,5.2,0,0,1,194.229-11.13Zm-.105,9.912a4.185,4.185,0,0,0,2.1-.536,3.782,3.782,0,0,0,1.48-1.522,4.636,4.636,0,0,0,.536-2.247A4.575,4.575,0,0,0,197.7-7.76a3.872,3.872,0,0,0-1.48-1.523,4.122,4.122,0,0,0-2.1-.546,4.105,4.105,0,0,0-2.11.546,3.894,3.894,0,0,0-1.47,1.523,4.575,4.575,0,0,0-.536,2.236,4.636,4.636,0,0,0,.536,2.247,3.8,3.8,0,0,0,1.47,1.522A4.168,4.168,0,0,0,194.124-1.218Zm12.453-9.912a4.676,4.676,0,0,1,3.318,1.082,4.179,4.179,0,0,1,1.155,3.2V0h-1.428V-1.722a3.419,3.419,0,0,1-1.48,1.344,5.182,5.182,0,0,1-2.321.483,4.544,4.544,0,0,1-2.94-.882,2.848,2.848,0,0,1-1.092-2.331,2.824,2.824,0,0,1,1.018-2.268,4.984,4.984,0,0,1,3.245-.861h3.507v-.672a2.831,2.831,0,0,0-.8-2.174,3.3,3.3,0,0,0-2.331-.745,5.926,5.926,0,0,0-2.016.346,5.08,5.08,0,0,0-1.659.956l-.672-1.113a5.959,5.959,0,0,1,2.016-1.1A7.849,7.849,0,0,1,206.577-11.13Zm-.525,10.059a3.929,3.929,0,0,0,2.163-.577,3.448,3.448,0,0,0,1.344-1.669V-5.124h-3.465q-2.835,0-2.835,1.974a1.806,1.806,0,0,0,.735,1.523A3.346,3.346,0,0,0,206.052-1.071Zm9.051-9.975h1.491V0H215.1Zm.756-2.415a1.056,1.056,0,0,1-.777-.315,1.031,1.031,0,0,1-.315-.756,1.007,1.007,0,0,1,.315-.735,1.056,1.056,0,0,1,.777-.315,1.075,1.075,0,0,1,.777.3.973.973,0,0,1,.315.724,1.056,1.056,0,0,1-.315.777A1.056,1.056,0,0,1,215.859-13.461ZM223.713.105a8.481,8.481,0,0,1-2.572-.389,5.533,5.533,0,0,1-1.921-.976l.672-1.176a5.658,5.658,0,0,0,1.743.893,6.924,6.924,0,0,0,2.184.346,4.171,4.171,0,0,0,2.236-.473A1.5,1.5,0,0,0,226.779-3a1.2,1.2,0,0,0-.4-.955,2.65,2.65,0,0,0-1.008-.525,14.379,14.379,0,0,0-1.617-.346,18.539,18.539,0,0,1-2.163-.515,3.178,3.178,0,0,1-1.4-.893,2.483,2.483,0,0,1-.577-1.743,2.732,2.732,0,0,1,1.155-2.268,5.186,5.186,0,0,1,3.213-.882,8.34,8.34,0,0,1,2.142.284,5.893,5.893,0,0,1,1.764.745l-.651,1.2a5.575,5.575,0,0,0-3.255-.945,3.775,3.775,0,0,0-2.152.5,1.544,1.544,0,0,0-.725,1.323,1.306,1.306,0,0,0,.41,1.008,2.519,2.519,0,0,0,1.018.557,16.435,16.435,0,0,0,1.68.367,19.325,19.325,0,0,1,2.121.5,3.116,3.116,0,0,1,1.365.861,2.369,2.369,0,0,1,.567,1.68,2.672,2.672,0,0,1-1.208,2.3A5.74,5.74,0,0,1,223.713.105ZM7.77,13.87a5.673,5.673,0,0,1,2.814.7,5.031,5.031,0,0,1,1.974,1.984,5.893,5.893,0,0,1,.714,2.919,5.937,5.937,0,0,1-.714,2.94A5.051,5.051,0,0,1,10.595,24.4a5.656,5.656,0,0,1-2.825.7,5.223,5.223,0,0,1-2.425-.556A4.6,4.6,0,0,1,3.57,22.921v6.153H2.079V13.954H3.507v2.184a4.593,4.593,0,0,1,1.775-1.68A5.2,5.2,0,0,1,7.77,13.87Zm-.105,9.912a4.185,4.185,0,0,0,2.1-.535,3.782,3.782,0,0,0,1.481-1.523,4.636,4.636,0,0,0,.536-2.247,4.575,4.575,0,0,0-.536-2.236,3.872,3.872,0,0,0-1.481-1.523,4.122,4.122,0,0,0-2.1-.546,4.105,4.105,0,0,0-2.11.546,3.894,3.894,0,0,0-1.47,1.523,4.575,4.575,0,0,0-.536,2.236,4.636,4.636,0,0,0,.536,2.247,3.8,3.8,0,0,0,1.47,1.523A4.168,4.168,0,0,0,7.665,23.782Zm10.08-7.665a3.613,3.613,0,0,1,1.564-1.68,5.316,5.316,0,0,1,2.573-.567v1.449l-.357-.021a3.528,3.528,0,0,0-2.73,1.071,4.267,4.267,0,0,0-.987,3V25H16.317V13.954h1.428ZM28.98,25.1a5.741,5.741,0,0,1-2.877-.724,5.284,5.284,0,0,1-2.016-2.006,6.081,6.081,0,0,1,0-5.8A5.209,5.209,0,0,1,26.1,14.584a6.153,6.153,0,0,1,5.754,0,5.136,5.136,0,0,1,2.005,1.995,6.158,6.158,0,0,1,0,5.8,5.209,5.209,0,0,1-2.005,2.006A5.741,5.741,0,0,1,28.98,25.1Zm0-1.323a4.168,4.168,0,0,0,2.111-.535,3.733,3.733,0,0,0,1.459-1.523,5.071,5.071,0,0,0,0-4.494,3.733,3.733,0,0,0-1.459-1.523,4.427,4.427,0,0,0-4.221,0A3.8,3.8,0,0,0,25.4,17.23a4.982,4.982,0,0,0,0,4.494,3.8,3.8,0,0,0,1.47,1.523A4.168,4.168,0,0,0,28.98,23.782ZM46.6,13.954,41.685,25H40.152L35.259,13.954h1.554l4.137,9.408,4.179-9.408ZM58,19.939h-9.24a3.948,3.948,0,0,0,1.323,2.783,4.392,4.392,0,0,0,3.024,1.06A4.765,4.765,0,0,0,55,23.414a4.129,4.129,0,0,0,1.491-1.081l.84.966a4.73,4.73,0,0,1-1.838,1.344,6.215,6.215,0,0,1-2.425.462,6.133,6.133,0,0,1-3.014-.724,5.223,5.223,0,0,1-2.048-2.006,5.718,5.718,0,0,1-.735-2.9,5.92,5.92,0,0,1,.7-2.9,5.094,5.094,0,0,1,1.932-1.995,5.394,5.394,0,0,1,2.761-.714,5.338,5.338,0,0,1,2.751.714,5.062,5.062,0,0,1,1.911,1.985,5.975,5.975,0,0,1,.693,2.908Zm-5.334-4.788a3.756,3.756,0,0,0-2.677,1.018,4,4,0,0,0-1.229,2.657H56.6a4,4,0,0,0-1.229-2.657A3.783,3.783,0,0,0,52.668,15.151Zm18.48-5.733V25H69.72V22.816a4.547,4.547,0,0,1-1.775,1.7,5.2,5.2,0,0,1-2.488.588,5.607,5.607,0,0,1-2.814-.714,5.1,5.1,0,0,1-1.974-2,5.893,5.893,0,0,1-.714-2.919,5.893,5.893,0,0,1,.714-2.919,5.031,5.031,0,0,1,1.974-1.984,5.673,5.673,0,0,1,2.814-.7,5.223,5.223,0,0,1,2.425.557,4.6,4.6,0,0,1,1.774,1.627V9.418ZM65.583,23.782a4.127,4.127,0,0,0,2.09-.535,3.8,3.8,0,0,0,1.47-1.523,4.982,4.982,0,0,0,0-4.494,3.8,3.8,0,0,0-1.47-1.523,4.385,4.385,0,0,0-4.2,0A3.8,3.8,0,0,0,62,17.23a4.982,4.982,0,0,0,0,4.494,3.8,3.8,0,0,0,1.47,1.523A4.168,4.168,0,0,0,65.583,23.782ZM79.821,25.1a5.741,5.741,0,0,1-2.877-.724,5.284,5.284,0,0,1-2.016-2.006,6.081,6.081,0,0,1,0-5.8,5.209,5.209,0,0,1,2.016-1.995,6.153,6.153,0,0,1,5.754,0A5.136,5.136,0,0,1,84.7,16.579a6.158,6.158,0,0,1,0,5.8A5.209,5.209,0,0,1,82.7,24.381,5.741,5.741,0,0,1,79.821,25.1Zm0-1.323a4.168,4.168,0,0,0,2.11-.535,3.733,3.733,0,0,0,1.46-1.523,5.071,5.071,0,0,0,0-4.494,3.733,3.733,0,0,0-1.46-1.523,4.427,4.427,0,0,0-4.221,0,3.8,3.8,0,0,0-1.47,1.523,4.982,4.982,0,0,0,0,4.494,3.8,3.8,0,0,0,1.47,1.523A4.168,4.168,0,0,0,79.821,23.782ZM89.9,16.117a3.613,3.613,0,0,1,1.564-1.68,5.316,5.316,0,0,1,2.572-.567v1.449l-.357-.021a3.528,3.528,0,0,0-2.73,1.071,4.267,4.267,0,0,0-.987,3V25H88.473V13.954H89.9Zm16.338,3.822H97a3.948,3.948,0,0,0,1.323,2.783,4.392,4.392,0,0,0,3.024,1.06,4.765,4.765,0,0,0,1.89-.368,4.129,4.129,0,0,0,1.491-1.081l.84.966a4.73,4.73,0,0,1-1.838,1.344,6.215,6.215,0,0,1-2.425.462,6.133,6.133,0,0,1-3.014-.724,5.223,5.223,0,0,1-2.048-2.006,5.718,5.718,0,0,1-.735-2.9,5.92,5.92,0,0,1,.7-2.9,5.094,5.094,0,0,1,1.932-1.995,5.394,5.394,0,0,1,2.761-.714,5.338,5.338,0,0,1,2.751.714,5.061,5.061,0,0,1,1.911,1.985,5.975,5.975,0,0,1,.693,2.908ZM100.9,15.151a3.756,3.756,0,0,0-2.677,1.018A4,4,0,0,0,97,18.826h7.833a4,4,0,0,0-1.229-2.657A3.783,3.783,0,0,0,100.9,15.151ZM112.266,25.1a8.481,8.481,0,0,1-2.573-.389,5.533,5.533,0,0,1-1.922-.976l.672-1.176a5.658,5.658,0,0,0,1.743.893,6.924,6.924,0,0,0,2.184.346,4.171,4.171,0,0,0,2.237-.472A1.5,1.5,0,0,0,115.332,22a1.2,1.2,0,0,0-.4-.955,2.65,2.65,0,0,0-1.008-.525,14.378,14.378,0,0,0-1.617-.347,18.538,18.538,0,0,1-2.163-.514,3.178,3.178,0,0,1-1.4-.892,2.483,2.483,0,0,1-.577-1.743,2.732,2.732,0,0,1,1.155-2.268,5.186,5.186,0,0,1,3.213-.882,8.34,8.34,0,0,1,2.142.284,5.894,5.894,0,0,1,1.764.745l-.651,1.2a5.575,5.575,0,0,0-3.255-.945,3.775,3.775,0,0,0-2.153.5,1.544,1.544,0,0,0-.725,1.323,1.306,1.306,0,0,0,.41,1.008,2.519,2.519,0,0,0,1.019.556,16.435,16.435,0,0,0,1.68.368,19.327,19.327,0,0,1,2.121.5,3.116,3.116,0,0,1,1.365.861,2.369,2.369,0,0,1,.567,1.68,2.672,2.672,0,0,1-1.207,2.3A5.74,5.74,0,0,1,112.266,25.1Zm22.89-15.687V25h-1.428V22.816a4.547,4.547,0,0,1-1.775,1.7,5.2,5.2,0,0,1-2.488.588,5.607,5.607,0,0,1-2.814-.714,5.1,5.1,0,0,1-1.974-2,5.893,5.893,0,0,1-.714-2.919,5.893,5.893,0,0,1,.714-2.919,5.031,5.031,0,0,1,1.974-1.984,5.673,5.673,0,0,1,2.814-.7,5.223,5.223,0,0,1,2.425.557,4.6,4.6,0,0,1,1.775,1.627V9.418Zm-5.565,14.364a4.127,4.127,0,0,0,2.09-.535,3.8,3.8,0,0,0,1.47-1.523,4.982,4.982,0,0,0,0-4.494,3.8,3.8,0,0,0-1.47-1.523,4.385,4.385,0,0,0-4.2,0,3.8,3.8,0,0,0-1.47,1.523,4.982,4.982,0,0,0,0,4.494,3.8,3.8,0,0,0,1.47,1.523A4.168,4.168,0,0,0,129.591,23.782ZM143.829,25.1a5.741,5.741,0,0,1-2.877-.724,5.284,5.284,0,0,1-2.016-2.006,6.081,6.081,0,0,1,0-5.8,5.209,5.209,0,0,1,2.016-1.995,6.153,6.153,0,0,1,5.754,0,5.136,5.136,0,0,1,2.006,1.995,6.158,6.158,0,0,1,0,5.8,5.209,5.209,0,0,1-2.006,2.006A5.741,5.741,0,0,1,143.829,25.1Zm0-1.323a4.168,4.168,0,0,0,2.111-.535,3.733,3.733,0,0,0,1.46-1.523,5.071,5.071,0,0,0,0-4.494,3.733,3.733,0,0,0-1.46-1.523,4.427,4.427,0,0,0-4.221,0,3.8,3.8,0,0,0-1.47,1.523,4.982,4.982,0,0,0,0,4.494,3.8,3.8,0,0,0,1.47,1.523A4.168,4.168,0,0,0,143.829,23.782Zm27.93-9.912a4.391,4.391,0,0,1,3.266,1.2,4.81,4.81,0,0,1,1.187,3.528V25H174.72V18.742a3.75,3.75,0,0,0-.829-2.625,3.02,3.02,0,0,0-2.341-.9,3.52,3.52,0,0,0-2.709,1.061,4.133,4.133,0,0,0-.987,2.929V25h-1.491V18.742a3.75,3.75,0,0,0-.829-2.625,3.047,3.047,0,0,0-2.362-.9,3.527,3.527,0,0,0-2.7,1.061,4.106,4.106,0,0,0-1,2.929V25h-1.491V13.954h1.428V15.97a3.984,3.984,0,0,1,1.638-1.554,5.16,5.16,0,0,1,2.415-.546,4.726,4.726,0,0,1,2.4.588,3.615,3.615,0,0,1,1.523,1.743,4.3,4.3,0,0,1,1.753-1.712A5.4,5.4,0,0,1,171.759,13.87Zm18.165,6.069h-9.24a3.948,3.948,0,0,0,1.323,2.783,4.392,4.392,0,0,0,3.024,1.06,4.765,4.765,0,0,0,1.89-.368,4.129,4.129,0,0,0,1.491-1.081l.84.966a4.73,4.73,0,0,1-1.837,1.344,6.215,6.215,0,0,1-2.426.462,6.133,6.133,0,0,1-3.013-.724,5.223,5.223,0,0,1-2.048-2.006,5.718,5.718,0,0,1-.735-2.9,5.92,5.92,0,0,1,.7-2.9,5.094,5.094,0,0,1,1.932-1.995,5.394,5.394,0,0,1,2.762-.714,5.338,5.338,0,0,1,2.751.714,5.061,5.061,0,0,1,1.911,1.985,5.975,5.975,0,0,1,.693,2.908Zm-5.334-4.788a3.756,3.756,0,0,0-2.678,1.018,4,4,0,0,0-1.229,2.657h7.833a4,4,0,0,0-1.228-2.657A3.783,3.783,0,0,0,184.59,15.151Zm9.828.966a3.613,3.613,0,0,1,1.564-1.68,5.316,5.316,0,0,1,2.572-.567v1.449L198.2,15.3a3.528,3.528,0,0,0-2.73,1.071,4.267,4.267,0,0,0-.987,3V25H192.99V13.954h1.428Zm11.3,8.988a5.953,5.953,0,0,1-2.93-.714,5.169,5.169,0,0,1-2.026-2.006,5.775,5.775,0,0,1-.735-2.909,5.718,5.718,0,0,1,.735-2.9,5.189,5.189,0,0,1,2.026-1.995,5.953,5.953,0,0,1,2.93-.714,5.672,5.672,0,0,1,2.551.557,4.237,4.237,0,0,1,1.775,1.627l-1.113.756a3.482,3.482,0,0,0-1.386-1.228,4.113,4.113,0,0,0-1.827-.41,4.326,4.326,0,0,0-2.152.535,3.763,3.763,0,0,0-1.491,1.523,5,5,0,0,0,0,4.5,3.78,3.78,0,0,0,1.491,1.512,4.326,4.326,0,0,0,2.152.535,4.2,4.2,0,0,0,1.827-.4,3.4,3.4,0,0,0,1.386-1.218l1.113.756a4.223,4.223,0,0,1-1.785,1.628A5.691,5.691,0,0,1,205.716,25.1ZM216.825,13.87a4.676,4.676,0,0,1,3.318,1.082,4.179,4.179,0,0,1,1.155,3.2V25H219.87V23.278a3.419,3.419,0,0,1-1.48,1.344,5.182,5.182,0,0,1-2.321.483,4.544,4.544,0,0,1-2.94-.882,3.034,3.034,0,0,1-.073-4.6,4.984,4.984,0,0,1,3.244-.861h3.507v-.672a2.831,2.831,0,0,0-.8-2.174,3.3,3.3,0,0,0-2.331-.745,5.926,5.926,0,0,0-2.016.346,5.08,5.08,0,0,0-1.659.955l-.672-1.113a5.959,5.959,0,0,1,2.016-1.1A7.849,7.849,0,0,1,216.825,13.87ZM216.3,23.929a3.929,3.929,0,0,0,2.163-.578,3.448,3.448,0,0,0,1.344-1.67V19.876h-3.465q-2.835,0-2.835,1.974a1.806,1.806,0,0,0,.735,1.522A3.346,3.346,0,0,0,216.3,23.929ZM235.473,9.418V25h-1.428V22.816a4.547,4.547,0,0,1-1.775,1.7,5.2,5.2,0,0,1-2.488.588,5.607,5.607,0,0,1-2.814-.714,5.1,5.1,0,0,1-1.974-2,5.893,5.893,0,0,1-.714-2.919,5.893,5.893,0,0,1,.714-2.919,5.031,5.031,0,0,1,1.974-1.984,5.673,5.673,0,0,1,2.814-.7,5.223,5.223,0,0,1,2.425.557,4.6,4.6,0,0,1,1.775,1.627V9.418Zm-5.565,14.364a4.127,4.127,0,0,0,2.09-.535,3.8,3.8,0,0,0,1.47-1.523,4.982,4.982,0,0,0,0-4.494A3.8,3.8,0,0,0,232,15.707a4.385,4.385,0,0,0-4.2,0,3.8,3.8,0,0,0-1.47,1.523,4.982,4.982,0,0,0,0,4.494,3.8,3.8,0,0,0,1.47,1.523A4.168,4.168,0,0,0,229.908,23.782ZM244.146,25.1a5.741,5.741,0,0,1-2.877-.724,5.284,5.284,0,0,1-2.016-2.006,6.081,6.081,0,0,1,0-5.8,5.209,5.209,0,0,1,2.016-1.995,6.153,6.153,0,0,1,5.754,0,5.136,5.136,0,0,1,2.006,1.995,6.158,6.158,0,0,1,0,5.8,5.209,5.209,0,0,1-2.006,2.006A5.741,5.741,0,0,1,244.146,25.1Zm0-1.323a4.168,4.168,0,0,0,2.111-.535,3.733,3.733,0,0,0,1.46-1.523,5.071,5.071,0,0,0,0-4.494,3.733,3.733,0,0,0-1.46-1.523,4.427,4.427,0,0,0-4.221,0,3.8,3.8,0,0,0-1.47,1.523,4.982,4.982,0,0,0,0,4.494,3.8,3.8,0,0,0,1.47,1.523A4.168,4.168,0,0,0,244.146,23.782Z" transform="translate(50 966)" fill="#9bbdff"/>
  </g>
</svg>
