<svg xmlns="http://www.w3.org/2000/svg" width="216.228" height="14.288" viewBox="0 0 216.228 14.288">
  <g id="uperttechcloud-logo" transform="translate(-243.765 -51.902)">
    <g id="logo" transform="translate(-323.46 930.861)">
      <g id="g36" transform="translate(567.225 -878.959)">
        <path id="path38" d="M-16.69,0a.4.4,0,0,1,.449.448V8.585a5.8,5.8,0,0,0,.133,1.356,1.827,1.827,0,0,0,.438.857,1.706,1.706,0,0,0,.826.448,5.426,5.426,0,0,0,1.315.133h5.648a5.429,5.429,0,0,0,1.315-.133A1.7,1.7,0,0,0-5.74,10.8a1.758,1.758,0,0,0,.428-.857,6.286,6.286,0,0,0,.122-1.356V.448A.4.4,0,0,1-4.74,0h2.222a.4.4,0,0,1,.449.448V8.891a8.873,8.873,0,0,1-.306,2.5,3.674,3.674,0,0,1-.989,1.672,4.02,4.02,0,0,1-1.774.928,10.551,10.551,0,0,1-2.641.286h-5.872a10.426,10.426,0,0,1-2.631-.286,4.016,4.016,0,0,1-1.764-.928,3.748,3.748,0,0,1-1-1.672,8.583,8.583,0,0,1-.316-2.5V.448q0-.448.469-.448Z" transform="translate(19.361 0)" fill="#fff"/>
      </g>
      <g id="g40" transform="translate(587.188 -878.959)">
        <path id="path42" d="M-19.495-45.1h7.81a1.975,1.975,0,0,0,1.468-.448,1.914,1.914,0,0,0,.428-1.366v-.775a1.914,1.914,0,0,0-.428-1.366,1.976,1.976,0,0,0-1.468-.449H-19.23q-.265,0-.265.245Zm8.442-7.219a4.518,4.518,0,0,1,3.364,1.06,4.365,4.365,0,0,1,1.02,3.14v1.509a4.365,4.365,0,0,1-1.02,3.14,4.517,4.517,0,0,1-3.364,1.06h-8.442V-38.5a.4.4,0,0,1-.448.449h-2.2q-.469,0-.469-.449V-51.711A.541.541,0,0,1-22-52.323Z" transform="translate(22.615 52.323)" fill="#fff"/>
      </g>
      <g id="g44" transform="translate(604.99 -878.959)">
        <path id="path46" d="M-91.738,0q.469,0,.469.448V2.386q0,.448-.469.448h-8.911a5.451,5.451,0,0,0-1.315.133,1.775,1.775,0,0,0-.836.448,1.716,1.716,0,0,0-.438.857,6.158,6.158,0,0,0-.123,1.336v.2H-91.84a.4.4,0,0,1,.449.449V7.871a.4.4,0,0,1-.449.449h-11.521v.347A6.159,6.159,0,0,0-103.239,10a1.711,1.711,0,0,0,.438.856,1.771,1.771,0,0,0,.836.449,5.444,5.444,0,0,0,1.315.132h8.911q.469,0,.469.449v1.937q0,.449-.469.449h-8.972a10.428,10.428,0,0,1-2.631-.286,4.017,4.017,0,0,1-1.764-.928,3.746,3.746,0,0,1-1-1.672,8.59,8.59,0,0,1-.316-2.5V5.383A8.486,8.486,0,0,1-106.1,2.9a3.748,3.748,0,0,1,1-1.662A4.1,4.1,0,0,1-103.341.3,10.118,10.118,0,0,1-100.71,0Z" transform="translate(106.42 0)" fill="#fff"/>
      </g>
      <g id="g48" transform="translate(622.486 -878.959)">
        <path id="path50" d="M-19.493-45.486h7.81a1.975,1.975,0,0,0,1.468-.448A1.914,1.914,0,0,0-9.787-47.3v-.856a1.914,1.914,0,0,0-.428-1.366,1.976,1.976,0,0,0-1.468-.448h-7.545q-.265,0-.265.245Zm8.442-7.28A4.518,4.518,0,0,1-7.687-51.7a4.365,4.365,0,0,1,1.02,3.14V-47.4a4.762,4.762,0,0,1-.714,2.773,3.408,3.408,0,0,1-2.325,1.3L-6.219-39a.321.321,0,0,1,.061.306q-.041.2-.326.2H-9.114a.772.772,0,0,1-.367-.061.715.715,0,0,1-.2-.2L-12.907-43h-6.586v4.058a.4.4,0,0,1-.448.448h-2.2q-.469,0-.469-.448V-52.154A.54.54,0,0,1-22-52.765Z" transform="translate(22.613 52.765)" fill="#fff"/>
      </g>
      <g id="g52" transform="translate(639.818 -878.959)">
        <path id="path54" d="M-102.441,0q.469,0,.469.448v2a.415.415,0,0,1-.469.469h-6.4V13.825a.4.4,0,0,1-.448.449h-2.222a.4.4,0,0,1-.449-.449V2.916h-6.4a.415.415,0,0,1-.469-.469v-2q0-.448.469-.448Z" transform="translate(118.836 0)" fill="#fff"/>
      </g>
      <g id="g56" transform="translate(657.62 -878.959)">
        <path id="path58" d="M-102.44,0q.469,0,.469.448v2a.415.415,0,0,1-.469.469h-6.4V13.825a.4.4,0,0,1-.449.449h-2.222a.4.4,0,0,1-.449-.449V2.916h-6.4a.415.415,0,0,1-.469-.469v-2q0-.448.469-.448Z" transform="translate(118.834 0)" fill="#fff"/>
      </g>
      <g id="g60" transform="translate(675.728 -878.959)">
        <path id="path62" d="M-91.738,0q.469,0,.469.448V2.386q0,.448-.469.448h-8.911a5.452,5.452,0,0,0-1.315.133,1.775,1.775,0,0,0-.836.448,1.716,1.716,0,0,0-.438.857,6.158,6.158,0,0,0-.123,1.336v.2H-91.84a.4.4,0,0,1,.448.449V7.871a.4.4,0,0,1-.448.449h-11.521v.347A6.159,6.159,0,0,0-103.239,10a1.711,1.711,0,0,0,.438.856,1.771,1.771,0,0,0,.836.449,5.445,5.445,0,0,0,1.315.132h8.911q.469,0,.469.449v1.937q0,.449-.469.449h-8.972a10.428,10.428,0,0,1-2.631-.286,4.015,4.015,0,0,1-1.764-.928,3.744,3.744,0,0,1-1-1.672,8.583,8.583,0,0,1-.316-2.5V5.383A8.479,8.479,0,0,1-106.1,2.9a3.746,3.746,0,0,1,1-1.662A4.1,4.1,0,0,1-103.341.3,10.118,10.118,0,0,1-100.71,0Z" transform="translate(106.42 0)" fill="#fff"/>
      </g>
      <g id="g64" transform="translate(693.06 -878.959)">
        <path id="path66" d="M-93.139,0a.4.4,0,0,1,.449.448v2q0,.469-.449.469h-9.074a5.448,5.448,0,0,0-1.315.132,1.707,1.707,0,0,0-.826.449,1.829,1.829,0,0,0-.439.846,5.679,5.679,0,0,0-.132,1.346v2.9a5.809,5.809,0,0,0,.132,1.356,1.832,1.832,0,0,0,.439.857,1.706,1.706,0,0,0,.826.448,5.429,5.429,0,0,0,1.315.133h9.074a.4.4,0,0,1,.449.448v2a.4.4,0,0,1-.449.449h-9.2a10.427,10.427,0,0,1-2.63-.286,4.015,4.015,0,0,1-1.764-.928,3.748,3.748,0,0,1-1-1.672,8.583,8.583,0,0,1-.316-2.5V5.383a8.479,8.479,0,0,1,.316-2.488,3.749,3.749,0,0,1,1-1.662A4.1,4.1,0,0,1-104.966.3a10.118,10.118,0,0,1,2.63-.3Z" transform="translate(108.045)" fill="#fff"/>
      </g>
      <g id="g68" transform="translate(710.597 -878.959)">
        <path id="path70" d="M-16.691,0a.4.4,0,0,1,.448.448v5.3H-6.7V.448A.4.4,0,0,1-6.251,0h2.2q.469,0,.469.448V13.825q0,.449-.469.449h-2.2a.4.4,0,0,1-.449-.449V8.4h-9.543v5.424a.4.4,0,0,1-.448.449h-2.2q-.469,0-.469-.449V.448q0-.448.469-.448Z" transform="translate(19.363 0)" fill="#fff"/>
      </g>
    </g>
    <path id="Caminho_34" data-name="Caminho 34" d="M7.942.19A7.49,7.49,0,0,1,4.3-.693,6.513,6.513,0,0,1,1.758-3.135,6.773,6.773,0,0,1,.836-6.65a6.72,6.72,0,0,1,.931-3.515,6.581,6.581,0,0,1,2.556-2.442,7.49,7.49,0,0,1,3.639-.884,7.589,7.589,0,0,1,2.983.57,6.084,6.084,0,0,1,2.28,1.653l-1.6,1.5a4.654,4.654,0,0,0-3.553-1.558,4.982,4.982,0,0,0-2.451.6A4.311,4.311,0,0,0,3.933-9.063,4.776,4.776,0,0,0,3.325-6.65a4.776,4.776,0,0,0,.608,2.413A4.312,4.312,0,0,0,5.624-2.574a4.982,4.982,0,0,0,2.451.6,4.629,4.629,0,0,0,3.553-1.577l1.6,1.52A6.068,6.068,0,0,1,10.935-.38,7.659,7.659,0,0,1,7.942.19ZM15.371-14.1h2.375V0H15.371ZM25.422.133a5.757,5.757,0,0,1-2.774-.665A4.849,4.849,0,0,1,20.72-2.384a5.232,5.232,0,0,1-.694-2.689,5.181,5.181,0,0,1,.694-2.679,4.869,4.869,0,0,1,1.929-1.843,5.757,5.757,0,0,1,2.774-.665,5.8,5.8,0,0,1,2.793.665,4.869,4.869,0,0,1,1.929,1.843,5.181,5.181,0,0,1,.694,2.679,5.232,5.232,0,0,1-.694,2.689A4.849,4.849,0,0,1,28.215-.532,5.8,5.8,0,0,1,25.422.133Zm0-2.033a2.9,2.9,0,0,0,2.166-.874,3.147,3.147,0,0,0,.855-2.3,3.147,3.147,0,0,0-.855-2.3,2.9,2.9,0,0,0-2.166-.874,2.871,2.871,0,0,0-2.157.874,3.167,3.167,0,0,0-.846,2.3,3.167,3.167,0,0,0,.846,2.3A2.871,2.871,0,0,0,25.422-1.9ZM42.94-10.146V0H40.679V-1.292A3.78,3.78,0,0,1,39.254-.237a4.585,4.585,0,0,1-1.843.371A4.41,4.41,0,0,1,34.21-1a4.46,4.46,0,0,1-1.169-3.354v-5.8h2.375v5.472a2.94,2.94,0,0,0,.618,2.043,2.263,2.263,0,0,0,1.758.675,2.662,2.662,0,0,0,2.024-.789,3.168,3.168,0,0,0,.75-2.271v-5.13ZM55.993-14.1V0h-2.28V-1.311A3.675,3.675,0,0,1,52.26-.228a4.908,4.908,0,0,1-1.91.361,5.347,5.347,0,0,1-2.632-.646,4.642,4.642,0,0,1-1.833-1.834,5.485,5.485,0,0,1-.665-2.727,5.432,5.432,0,0,1,.665-2.717,4.659,4.659,0,0,1,1.833-1.824,5.347,5.347,0,0,1,2.632-.646,4.823,4.823,0,0,1,1.843.342,3.707,3.707,0,0,1,1.425,1.026V-14.1ZM50.635-1.9a3.055,3.055,0,0,0,1.539-.39A2.815,2.815,0,0,0,53.257-3.4a3.4,3.4,0,0,0,.4-1.672,3.4,3.4,0,0,0-.4-1.672,2.815,2.815,0,0,0-1.083-1.112,3.055,3.055,0,0,0-1.539-.389,3.055,3.055,0,0,0-1.539.389,2.815,2.815,0,0,0-1.083,1.112,3.4,3.4,0,0,0-.4,1.672,3.4,3.4,0,0,0,.4,1.672A2.815,2.815,0,0,0,49.1-2.289,3.055,3.055,0,0,0,50.635-1.9Z" transform="translate(404 66)" fill="#8db4ff"/>
  </g>
</svg>
